<svg width="33" height="28" viewBox="0 0 33 28" fill="none" xmlns="http://www.w3.org/2000/svg">
<path d="M2.11591 12.1414L2.11592 12.1414L26.8579 12.1425L17.9392 3.22379C17.6467 2.93126 17.4823 2.5345 17.4823 2.1208C17.4823 1.7071 17.6467 1.31034 17.9392 1.01781C18.2318 0.725279 18.6285 0.560938 19.0422 0.560937C19.4559 0.560938 19.8527 0.725279 20.1452 1.01781L31.7264 12.599C32.0189 12.8915 32.1832 13.2883 32.1832 13.702L31.8832 13.702L32.1832 13.702C32.1832 14.1157 32.0189 14.5124 31.7264 14.8049L20.1452 26.3861C19.8527 26.6786 19.4559 26.843 19.0422 26.843C18.6285 26.843 18.2318 26.6786 17.9392 26.3861C17.6467 26.0936 17.4823 25.6968 17.4823 25.2831C17.4823 24.8694 17.6467 24.4726 17.9392 24.1801L26.8579 15.2614L2.11592 15.2625L2.11591 14.9625L2.11591 15.2625C1.70202 15.2625 1.30509 15.0981 1.01242 14.8054C0.719762 14.5128 0.555345 14.1158 0.555345 13.702M2.11591 12.1414L0.555345 13.702M2.11591 12.1414C1.70202 12.1414 1.30509 12.3058 1.01242 12.5985C0.719762 12.8911 0.555345 13.2881 0.555345 13.702M2.11591 12.1414L0.855345 13.702L0.555345 13.702" fill="#4E9459" stroke="white" stroke-width="0.6"/>
</svg>
