<svg width="80" height="79" viewBox="0 0 80 79" fill="none" xmlns="http://www.w3.org/2000/svg">
<rect x="0.5" width="79" height="79" rx="39.5" fill="white"/>
<path d="M39 51.3516C39 51.9038 39.4477 52.3516 40 52.3516C40.5523 52.3516 41 51.9038 41 51.3516H39ZM40.7071 26.9445C40.3166 26.5539 39.6834 26.5539 39.2929 26.9445L32.9289 33.3084C32.5384 33.6989 32.5384 34.3321 32.9289 34.7226C33.3195 35.1132 33.9526 35.1132 34.3431 34.7226L40 29.0658L45.6569 34.7226C46.0474 35.1132 46.6805 35.1132 47.0711 34.7226C47.4616 34.3321 47.4616 33.6989 47.0711 33.3084L40.7071 26.9445ZM41 51.3516V27.6516H39V51.3516H41Z" fill="#4E9459"/>
</svg>
