<svg width="29" height="24" viewBox="0 0 29 24" fill="none" xmlns="http://www.w3.org/2000/svg">
<path d="M23.3862 13.6951L14.7003 22.381C14.5231 22.5582 14.2827 22.6577 14.0321 22.6577C13.7815 22.6577 13.5412 22.5582 13.364 22.381C13.1868 22.2038 13.0872 21.9634 13.0872 21.7128C13.0872 21.4622 13.1868 21.2219 13.364 21.0447L20.4371 13.9715L1.33742 13.9724C1.08668 13.9724 0.846207 13.8728 0.668906 13.6955C0.491604 13.5182 0.391998 13.2777 0.391997 13.027C0.391997 12.7762 0.491605 12.5357 0.668906 12.3584C0.846207 12.1811 1.08668 12.0815 1.33742 12.0815L20.4371 12.0824L13.364 5.00923C13.1868 4.83203 13.0872 4.59169 13.0872 4.34109C13.0872 4.09049 13.1868 3.85015 13.364 3.67295C13.5412 3.49574 13.7815 3.39619 14.0321 3.39619C14.2827 3.39619 14.5231 3.49574 14.7003 3.67295L23.3862 12.3588C23.5634 12.536 23.6629 12.7764 23.6629 13.027C23.6629 13.2776 23.5634 13.5179 23.3862 13.6951Z" fill="white"/>
</svg>
