<svg width="30" height="30" viewBox="0 0 30 30" fill="none" xmlns="http://www.w3.org/2000/svg">
<path d="M5.95107 4.57734C6.03937 4.48903 6.08353 4.44488 6.12243 4.40914C7.07887 3.53029 8.54901 3.53029 9.50545 4.40914C9.54435 4.44488 9.58851 4.48903 9.67681 4.57734L11.4996 6.40008C12.5021 7.40265 12.7889 8.9167 12.2223 10.2164C11.6558 11.5162 11.9425 13.0302 12.9451 14.0328L15.9411 17.0288C16.9436 18.0313 18.4577 18.3181 19.7574 17.7515C21.0571 17.185 22.5712 17.4717 23.5738 18.4743L25.3965 20.297C25.4848 20.3853 25.529 20.4295 25.5647 20.4684C26.4436 21.4248 26.4436 22.895 25.5647 23.8514C25.529 23.8903 25.4848 23.9345 25.3965 24.0228L24.2886 25.1307C23.3863 26.0329 22.0857 26.4117 20.8401 26.1349C12.3531 24.2489 5.72494 17.6207 3.83894 9.13375C3.56214 7.88817 3.9409 6.58751 4.84314 5.68527L5.95107 4.57734Z" stroke="white" stroke-opacity="0.6" stroke-width="2"/>
</svg>
