<svg width="98" height="89" viewBox="0 0 98 89" fill="none" xmlns="http://www.w3.org/2000/svg">
<path d="M34.4028 27.6902C33.8792 27.6143 34.1749 26.9284 34.6697 25.9186C34.9986 25.4838 35.4181 25.1223 35.9005 24.8579C36.2775 24.813 36.6587 24.8105 37.0367 24.8507C38.0923 25.4837 39.1118 26.173 40.0905 26.9154C40.774 27.4036 41.3844 27.9833 41.9034 28.6374L45.1559 32.432C45.3964 32.7113 45.5904 33.0259 45.7307 33.3641C46.2591 34.5116 46.989 35.5605 47.8871 36.4626C48.0059 36.6453 48.1837 36.7839 48.3919 36.8563C49.4106 37.7693 50.2863 38.8242 50.9904 39.9867C51.3107 41.0574 51.9003 41.9629 52.3948 43.0068C52.444 43.1715 52.481 43.295 52.5426 43.5009C52.5018 43.6909 52.5096 43.888 52.5655 44.0748C52.6214 44.2616 52.7235 44.4323 52.8629 44.5715C53.0865 44.9947 53.2785 45.433 53.4374 45.8831C53.4913 46.1565 53.5134 46.4348 53.5034 46.7128C53.5773 46.9598 53.077 47.1899 52.9807 47.1724C52.8843 47.1548 52.6396 47.4023 52.5024 47.5525L52.3134 47.6057C51.2189 47.2307 50.1503 46.7857 49.1146 46.2737C48.9046 46.3328 46.1787 43.4615 45.906 43.1587C45.7418 42.9831 45.6236 42.7712 45.5619 42.5413C45.5311 42.4383 43.1949 40.2609 43.1221 40.1698C42.7335 39.6318 42.1867 39.2499 42.0972 38.4939C42.054 38.3498 42.0232 38.2468 41.9925 38.1439C41.2623 37.293 40.5968 36.391 40.0012 35.4452C39.6793 34.9778 39.2646 34.5811 38.9068 34.1461C38.8665 34.0536 38.8375 33.9568 38.8206 33.8578C38.7951 33.7313 38.7579 33.6073 38.7097 33.4872C37.9038 32.4266 37.0249 31.421 36.079 30.4775C35.8371 30.2777 35.2528 28.8573 34.9381 28.5663C34.6234 28.2754 34.6226 27.7399 34.4028 27.6902Z" fill="#4E9459"/>
<path d="M38.0835 77.9215C38.3972 78.1698 38.6503 77.7082 38.8947 76.8199C38.9728 76.4057 38.9689 75.9801 38.8833 75.5663C38.7301 75.3387 38.5578 75.1239 38.3682 74.9241C38.2213 74.881 36.5416 74.3882 35.9747 74.2219C35.4532 74.0363 34.9045 73.9357 34.3507 73.9241C33.2392 73.8213 32.1462 73.6569 31.1495 73.4762C30.9129 73.437 30.6712 73.4418 30.4369 73.4904C29.6399 73.5965 28.8271 73.4966 28.0793 73.2006C28.0067 73.1942 27.937 73.1692 27.8771 73.1281C27.8173 73.0871 27.7695 73.0314 27.7384 72.9667C27.0097 72.555 26.2242 72.2494 25.4066 72.0594C24.6619 72.0641 23.9184 71.9883 23.1898 71.8332C23.1898 71.8332 23.0008 71.7778 22.8748 71.7409C22.7488 71.7039 22.3364 71.7838 22.1326 71.7017C21.9288 71.6196 21.5657 71.5354 21.2298 71.4369C21.0167 71.4389 20.8044 71.4588 20.595 71.4963C20.4499 71.611 20.3465 71.7685 20.2999 71.9455C20.2382 72.1507 20.0419 72.2717 19.9023 72.4317C19.8649 72.4861 19.8455 72.5505 19.8468 72.6163C20.0657 73.3717 20.4051 74.0892 20.8524 74.742C21.7472 75.5265 22.6991 76.2461 23.7007 76.8948C23.8687 76.9865 24.0551 77.0412 24.2466 77.0549C25.0322 77.4794 25.8389 77.8651 26.6636 78.2105C27.1675 78.3584 27.6714 78.5062 28.2049 78.3278C28.2049 78.3278 28.3939 78.3832 28.4988 78.414C29.3381 78.5754 30.1933 78.6389 31.0466 78.6033C31.4717 78.6173 31.8958 78.6523 32.3175 78.7082L32.5434 78.6405L32.8324 78.5913C33.8266 78.7044 34.8109 78.5466 35.7865 78.7212C35.9965 78.7828 37.082 78.3645 37.3339 78.4384C37.5859 78.5123 37.955 77.8168 38.0835 77.9215Z" fill="#4E9459"/>
<path d="M83.9929 43.1947C84.2828 43.599 83.6546 43.9501 82.669 44.1001C82.193 44.1126 81.7201 44.0139 81.2895 43.8121C81.093 43.5713 80.912 43.3188 80.7475 43.0561C80.6845 42.9682 80.3983 40.8582 80.2401 40.1541C80.1071 39.4655 80.052 38.765 80.0759 38.0654C80.1056 36.6564 80.0438 35.2314 80.0125 33.8117C80.022 33.4927 80.0624 33.1756 80.1333 32.8644C80.4405 31.7757 80.5301 30.638 80.3972 29.5135C80.3587 29.4193 80.3006 29.3339 80.2266 29.2627C80.1526 29.1914 80.0644 29.1361 79.9675 29.1C79.6971 27.9054 79.6177 26.678 79.7321 25.4617C80.0285 24.4991 80.1851 23.5274 80.3363 22.5855C80.3363 22.5855 80.305 22.3187 80.4713 22.1787C80.6376 22.0388 80.7958 21.59 80.8181 21.2865C80.8399 20.8668 80.9083 20.451 81.0223 20.0464C81.1274 19.8079 81.2832 19.5942 81.4793 19.4194C81.6761 19.2848 82.2229 19.3039 82.2912 19.362C82.3595 19.42 82.7592 19.3825 83.0011 19.3481C83.0848 19.3314 83.1704 19.3257 83.2557 19.3312C83.8249 20.1378 84.2828 21.0141 84.6173 21.9372L84.9332 23.7911L85.3035 25.8698C85.4296 26.0456 85.2779 26.2803 85.223 26.5013C85.1681 26.7222 85.6389 29.3872 85.6357 29.4943C85.5962 30.0715 85.7755 30.6563 85.4027 31.2519C85.3754 31.3027 85.359 31.3584 85.3542 31.4156C85.3495 31.4729 85.3565 31.5306 85.375 31.5853C85.4098 32.5936 85.3571 33.6026 85.2176 34.6013C85.1762 35.1013 85.2262 35.6173 85.2152 36.1227C85.2068 36.2209 85.1739 36.3154 85.1192 36.3979C85.0829 36.514 85.0616 36.6343 85.0558 36.7557C85.0757 37.9736 84.8464 39.1785 84.9935 40.388C85.0195 40.6846 84.5019 42.008 84.5048 42.3467C84.5076 42.6854 83.8973 43.0242 83.9929 43.1947Z" fill="#4E9459"/>
</svg>
