<svg width="60" height="61" viewBox="0 0 60 61" fill="none" xmlns="http://www.w3.org/2000/svg">
<path d="M24.4559 25.2417C26.8147 25.6132 29.0279 24.0022 29.3994 21.6435C29.7709 19.2847 28.1599 17.0715 25.8012 16.7C23.4424 16.3285 21.2291 17.9395 20.8576 20.2982C20.4862 22.657 22.0972 24.8703 24.4559 25.2417Z" stroke="#4E9459" stroke-width="4" stroke-linecap="round" stroke-linejoin="round"/>
<path d="M33.5556 9.16977L27.1493 8.16083C16.4721 6.47927 11.5285 10.0775 9.84698 20.7547L7.82911 33.5674C6.14754 44.2446 9.7458 49.1881 20.423 50.8697L33.2357 52.8876C43.9129 54.5691 48.8564 50.9709 50.538 40.2937L51.8832 31.7519" stroke="#4E9459" stroke-width="4" stroke-linecap="round" stroke-linejoin="round"/>
<path d="M41.3061 17.1914C40.9511 14.8596 42.2178 12.236 44.6418 11.8519C45.9195 11.6592 47.3853 12.2183 48.0545 13.5273C49.0576 12.4379 50.6636 12.3844 51.8169 12.9819C54.0268 14.0958 54.4258 16.9817 53.3713 19.0916C51.7093 22.4189 47.5763 23.65 46.5086 23.4818C45.4195 23.3103 41.8796 20.9145 41.3061 17.1914Z" stroke="#FFC300" stroke-width="4" stroke-linecap="round" stroke-linejoin="round"/>
<path d="M7.92839 42.2256L19.5693 36.8153C21.4346 35.9492 23.8488 36.4607 25.1598 38.0021L25.767 38.7324C27.2073 40.4254 29.898 40.8492 31.7889 39.6808L41.873 33.4563C43.764 32.2879 46.4546 32.7116 47.895 34.4047L50.9049 37.9425" stroke="#4E9459" stroke-width="4" stroke-linecap="round" stroke-linejoin="round"/>
</svg>
