<svg width="90" height="76" viewBox="0 0 90 76" fill="none" xmlns="http://www.w3.org/2000/svg">
<path d="M14.2913 52.9614C14.2557 52.9764 14.2243 52.9999 14.2 53.0299L14.238 52.9766C14.3088 52.8879 14.3724 52.7937 14.4283 52.695C14.469 52.6198 14.5022 52.5408 14.5272 52.4591C14.5695 52.3791 14.5929 52.2906 14.5957 52.2003V52.1318C14.4968 54.0954 14.5957 52.6798 14.5425 53.1136H13.8955C13.4138 53.1436 12.9353 53.2124 12.4647 53.3191C11.4676 53.5246 10.4325 53.8595 9.2985 54.1335C8.84184 54.2324 8.35474 54.4303 7.68497 54.5825C7.3059 54.6696 6.91646 54.7029 6.5281 54.6815C5.99447 54.6517 5.48583 54.4455 5.08202 54.0954C4.99069 54.0041 4.89175 53.9051 4.80803 53.8062C4.6964 53.652 4.60198 53.4862 4.52642 53.3115C4.44481 53.0902 4.41109 52.8541 4.42748 52.6189C4.44144 52.4042 4.49838 52.1946 4.59492 52.0024C4.8317 51.5781 5.17884 51.2257 5.59957 50.9825C6.13218 50.6812 6.68986 50.4266 7.26637 50.2214L8.65156 49.6734C8.86881 49.6047 9.06342 49.4784 9.21478 49.3081C9.24505 49.2674 9.26139 49.218 9.26139 49.1673C9.26139 49.1166 9.24505 49.0672 9.21478 49.0265C9.15073 48.9737 9.06936 48.9466 8.98645 48.9504C8.58499 49.0008 8.18804 49.0823 7.79914 49.1939L7.36531 49.2777C6.98033 49.341 6.59098 49.3741 6.20083 49.3766C5.73615 49.3857 5.27469 49.2976 4.84608 49.1178C4.35118 48.9007 3.94934 48.515 3.71205 48.0295C3.55361 47.7282 3.49751 47.3836 3.55222 47.0477C3.61863 46.7258 3.78041 46.4314 4.01649 46.2028C4.34399 45.8774 4.73176 45.6189 5.15813 45.4417C5.85119 45.1863 6.5639 44.9878 7.2892 44.8481L10.9805 44.087L11.4448 43.9348L11.7036 43.8587C11.8433 43.8102 11.9783 43.7491 12.1069 43.676C12.2287 43.6151 12.3581 43.4705 12.2744 43.3259C12.2502 43.2568 12.212 43.1934 12.1623 43.1397C12.1125 43.0861 12.0522 43.0432 11.9852 43.0138C11.8164 42.9304 11.6327 42.8812 11.4448 42.8692C11.086 42.8296 10.7249 42.8143 10.364 42.8236C9.58496 42.8469 8.80761 42.9104 8.03508 43.0138C6.4748 43.1255 4.92376 43.3417 3.39239 43.6608C2.44863 43.8206 2.44102 43.5162 3.14122 42.8997C4.3435 41.989 5.79076 41.4589 7.29681 41.3775C8.05791 41.309 8.91795 41.1948 9.79321 41.1644C10.2393 41.1379 10.6866 41.1379 11.1327 41.1644H11.4828H11.6807C11.7807 41.1721 11.8799 41.1874 11.9776 41.21C12.3551 41.2878 12.7228 41.4078 13.0735 41.5678C13.3775 41.6856 13.6503 41.8718 13.8707 42.112C14.0911 42.3522 14.2533 42.64 14.3446 42.953L14.4511 43.4096C14.4511 43.5618 14.4511 43.7217 14.3978 43.8739C14.3113 44.1599 14.1573 44.4209 13.9488 44.635C13.3754 45.0934 12.719 45.4371 12.0156 45.6472C11.597 45.7842 11.186 45.8984 10.775 46.0049C9.15389 46.3703 7.51753 46.629 6.16278 47.0933C5.89639 47.1735 5.6408 47.286 5.40168 47.4282H5.36363C5.30612 47.3811 5.24201 47.3426 5.17335 47.314L5.08202 47.2684C5.12008 47.2684 5.08202 47.2684 5.15813 47.2684C5.23424 47.2684 5.4854 47.1314 5.44735 47.1923C5.47109 47.2529 5.50797 47.3076 5.55534 47.3524C5.60271 47.3971 5.6594 47.4308 5.72134 47.451C5.98923 47.5355 6.27109 47.5665 6.55094 47.5424H6.86299C6.99591 47.5292 7.12803 47.5089 7.25876 47.4815C7.64493 47.384 8.02595 47.2671 8.4004 47.1314C9.24522 46.8954 10.1281 46.6138 10.8511 46.454C11.3932 46.3304 11.9468 46.2641 12.5027 46.2561C12.867 46.2527 13.2303 46.2962 13.5835 46.3855C13.8004 46.4392 14.0029 46.5399 14.1766 46.6807C14.3502 46.8214 14.4907 46.9987 14.5881 47.1999C14.692 47.4392 14.7288 47.7023 14.6947 47.961C14.6582 48.1648 14.5805 48.359 14.4663 48.5318C13.8963 49.3435 13.1144 49.9833 12.2059 50.3813C11.4981 50.7161 10.6837 51.0586 9.82365 51.3935L8.54501 51.8806L7.74586 52.2003C7.31157 52.363 6.8998 52.5804 6.52049 52.8472C6.52049 52.8472 6.45199 52.8929 6.45199 52.9005C6.45199 52.9081 6.45199 52.9538 6.33022 52.8472C6.27568 52.812 6.21685 52.7838 6.15517 52.7635C6.07145 52.7635 6.1095 52.7635 6.07145 52.7635C6.03339 52.7635 6.00295 52.7635 6.01817 52.7635H6.07906C6.56616 52.4591 6.39872 52.6341 6.49766 52.6417C6.85258 52.709 7.2193 52.6747 7.55559 52.5428L8.31668 52.3144L9.1615 52.0633C10.2042 51.7969 11.285 51.4468 12.4418 51.2413C13.1929 51.0904 13.9606 51.0392 14.7251 51.0891C15.0585 51.1378 15.3664 51.2957 15.6004 51.5381C15.8032 51.7315 15.9639 51.9647 16.0723 52.2231C16.1893 52.5182 16.2158 52.8414 16.1484 53.1517C16.0769 53.4356 15.9356 53.6972 15.7374 53.9127C15.1246 54.473 14.3685 54.8524 13.553 55.0087C13.1953 55.1153 12.8376 55.1686 12.4875 55.2371C12.177 55.2853 11.8695 55.3513 11.5666 55.4349C10.6568 55.6794 9.79478 56.0757 9.01689 56.607C8.67026 56.8388 8.37494 57.1393 8.14924 57.4899C8.06651 57.6397 8.00746 57.8015 7.97419 57.9694C7.96458 58.0325 7.96458 58.0966 7.97419 58.1597H7.9133C7.81436 58.2053 7.80675 58.2053 7.7763 58.2358C7.74586 58.2662 7.7763 58.2358 7.82197 58.1597C7.84138 58.1261 7.85671 58.0903 7.86763 58.0531C7.9256 58.0626 7.98472 58.0626 8.04269 58.0531C8.24728 58.0369 8.44916 57.996 8.64395 57.9313C9.10911 57.7925 9.56429 57.6221 10.0063 57.4214C10.9425 57.0256 11.8101 56.5461 12.8757 56.158C13.6553 55.9112 14.4481 55.7079 15.2503 55.5491C15.6823 55.4638 16.1197 55.4078 16.5594 55.3817C16.8145 55.3739 17.0698 55.3943 17.3205 55.4425C17.702 55.5041 18.0496 55.6982 18.3023 55.9905C18.3958 56.107 18.4822 56.229 18.561 56.3559C18.635 56.4956 18.6986 56.6406 18.7513 56.7897C18.8655 57.1565 18.8655 57.5493 18.7513 57.9161C18.5171 58.4635 18.1146 58.9221 17.6021 59.2252C16.877 59.6655 16.1126 60.0375 15.3188 60.3364L13.4389 61.0975C11.1556 62.0945 10.737 62.3609 9.93021 62.3685C9.74754 62.3685 9.55727 62.4294 9.39744 62.4218C9.23761 62.4142 9.06256 62.1174 9.2985 61.577C9.69117 60.8262 10.2873 60.2011 11.0186 59.7732C12.2971 59.0431 13.6246 58.4023 14.9915 57.8552C15.5324 57.6419 16.0439 57.3606 16.5137 57.018C16.5594 57.018 16.5517 56.9724 16.5746 56.9495C16.6431 57.0095 16.717 57.063 16.7953 57.1094C16.9856 57.2692 17.2139 57.2844 17.0845 57.2692C17.0041 57.2735 16.9247 57.2888 16.8486 57.3148C16.8486 57.3148 16.6887 57.3148 16.6202 57.3833C16.5665 57.4021 16.5153 57.4277 16.468 57.4595C16.4589 57.4548 16.4509 57.4483 16.4444 57.4405C16.4378 57.4326 16.4329 57.4236 16.43 57.4138C18.0739 56.2341 16.8866 57.0865 17.252 56.8201C17.2225 56.8683 17.1894 56.9141 17.153 56.9571C17.1043 57.0291 17.0682 57.1089 17.0465 57.1931C17.0465 57.254 16.9399 57.4214 16.9171 57.5356C16.8942 57.6497 16.9171 57.665 16.9171 57.6726H16.7725C16.6787 57.6657 16.5846 57.6657 16.4909 57.6726C16.2013 57.694 15.9138 57.7372 15.6308 57.8019C14.9714 57.9408 14.3207 58.1187 13.6824 58.3347C13.2181 58.4945 12.5103 58.8523 11.8329 59.1491C11.1051 59.4936 10.3579 59.796 9.59532 60.0548C9.24293 60.1711 8.88141 60.2576 8.51457 60.3136C8.26281 60.352 8.0078 60.3647 7.75347 60.3516C7.34278 60.3587 6.93697 60.2619 6.57377 60.07C6.11824 59.7613 5.79295 59.295 5.66045 58.7609C5.59204 58.4409 5.57661 58.1118 5.61479 57.7867C5.69351 57.2975 5.86394 56.8275 6.11711 56.4015C6.52294 55.7214 7.07389 55.1393 7.73064 54.6967C8.28405 54.3182 8.87592 53.9993 9.49638 53.7453C10.0826 53.5069 10.6923 53.3309 11.3154 53.2201C12.0765 53.0832 12.4799 53.0755 12.9518 52.9842C13.3384 52.9251 13.715 52.8124 14.0706 52.6493L14.1467 52.6037C14.1467 52.6037 14.4207 52.832 14.5348 52.8548C14.5623 52.8616 14.5911 52.8616 14.6186 52.8548H14.5729C14.5279 52.8435 14.4809 52.8435 14.4359 52.8548C14.3786 52.8708 14.3246 52.8966 14.2761 52.9309L14.2913 52.9614Z" fill="#4E9459"/>
<path d="M83.8241 9.43296C83.8793 9.39471 83.9259 9.34548 83.9611 9.28835C83.9702 9.27496 83.9759 9.25954 83.9776 9.24345C83.9793 9.22736 83.9771 9.2111 83.9711 9.19607C83.9651 9.18105 83.9555 9.16773 83.9431 9.15728C83.9308 9.14683 83.9161 9.13956 83.9002 9.13613C83.8317 9.10975 83.7557 9.10975 83.6871 9.13613L83.5882 9.17418L83.3294 9.3264C83.1371 9.45346 82.9516 9.59066 82.7738 9.7374C82.0109 10.3816 81.3171 11.1034 80.7036 11.8913C80.0341 12.8148 79.2881 13.6804 78.4736 14.479C78.1032 14.8415 77.6733 15.1375 77.2026 15.3543C77.0292 15.4169 76.851 15.4653 76.6698 15.4989C76.4379 15.5363 76.2015 15.5363 75.9696 15.4989C75.7293 15.4202 75.505 15.299 75.3075 15.1412C75.0701 14.9353 74.8869 14.6742 74.7741 14.3809C74.6613 14.0876 74.6223 13.7711 74.6605 13.4592C74.6965 13.1584 74.7733 12.8639 74.8889 12.5839C75.0976 12.1492 75.3528 11.7383 75.65 11.3585C76.1949 10.6779 76.7821 10.0322 77.4081 9.42535C77.7049 9.12091 77.9789 8.87736 78.2301 8.59575C78.4812 8.31415 78.7705 7.99449 78.9912 7.69005C79.5035 7.10853 79.9692 6.48759 80.384 5.83297C80.5687 5.54703 80.7194 5.24052 80.833 4.91966C80.8652 4.81312 80.8856 4.70337 80.8939 4.59238C80.8939 4.50866 80.8939 4.52388 80.8939 4.50866H81.206C81.206 4.50866 81.206 4.50866 81.206 4.56955C81.1983 4.60978 81.1983 4.65109 81.206 4.69133H81.1527H81.0461C80.8421 4.78081 80.6503 4.8959 80.4753 5.03382C80.0571 5.35755 79.6652 5.71384 79.3032 6.09935C78.5421 6.86045 77.781 7.73571 77.0199 8.58814L75.7946 10.0038C75.321 10.5558 74.8125 11.0769 74.2724 11.564C73.966 11.8644 73.6041 12.1022 73.2068 12.2642C73.0315 12.3303 72.8462 12.3663 72.6588 12.3708C72.4608 12.3425 72.2667 12.2914 72.0804 12.2186C71.7038 12.08 71.3901 11.8096 71.1975 11.4575C71.0291 11.0967 70.9734 10.6935 71.0377 10.3006C71.1294 9.74296 71.3092 9.20344 71.5705 8.70231C71.7912 8.25326 71.9662 7.94121 72.187 7.57588C72.6056 6.87567 73.0546 6.21352 73.4961 5.56659C73.9375 4.91965 74.3789 4.27272 74.7823 3.64101C74.9726 3.32135 75.1781 3.0093 75.3455 2.70486C75.5023 2.44338 75.6227 2.16171 75.7032 1.86766C75.8022 1.63933 75.7413 1.50233 75.8707 1.39578C76.0001 1.28922 76.3426 1.29683 76.6318 1.8296C76.8646 2.5055 76.8805 3.23721 76.6774 3.92262C76.4473 4.76376 76.0796 5.56101 75.5891 6.28202L74.2724 8.26848L73.6711 9.22746C73.4428 9.62323 73.4352 9.64606 73.4352 9.63845C73.4352 9.63845 73.4352 9.63845 73.5417 9.54712C74.592 8.45875 75.6271 7.19533 76.7307 5.98519C77.294 5.35458 77.8911 4.75497 78.5193 4.189C78.8615 3.87857 79.228 3.59606 79.6153 3.34418C79.8541 3.18745 80.1093 3.05729 80.3764 2.95602C80.7529 2.80447 81.1652 2.76483 81.5637 2.84186C81.7171 2.89024 81.8671 2.94872 82.0127 3.01691L82.1573 3.09302L82.2715 3.23002C82.5758 3.60551 82.7327 4.07905 82.7129 4.56194C82.6994 4.90822 82.63 5.25004 82.5074 5.5742C82.3079 6.09245 82.0527 6.58752 81.7463 7.05073C81.1866 7.90458 80.5713 8.72071 79.9045 9.49384C79.6 9.85917 79.1967 10.3006 78.8694 10.6279C78.5421 10.9552 78.192 11.3129 77.88 11.663C77.5737 11.9919 77.289 12.3402 77.0275 12.7057C76.8284 12.967 76.6811 13.2641 76.5937 13.5809C76.5937 13.619 76.5937 13.619 76.5937 13.6342C76.5937 13.6494 76.7079 13.52 76.5937 13.6342C76.5937 13.6342 76.5024 13.7636 76.51 13.7484C76.518 13.6852 76.518 13.6213 76.51 13.5581C76.8754 13.3844 77.2037 13.1414 77.4766 12.8427C78.2006 12.0662 78.8815 11.2506 79.5163 10.3996C80.2389 9.49219 81.0725 8.67908 81.9975 7.97926C82.2401 7.79564 82.4944 7.62785 82.7586 7.47694C83.1148 7.26975 83.4994 7.1159 83.9002 7.02028C84.2709 6.92068 84.6581 6.89833 85.0378 6.95463C85.4175 7.01093 85.7816 7.14467 86.1074 7.34755C86.2912 7.4745 86.4418 7.64381 86.5465 7.84118C86.6511 8.03855 86.7068 8.2582 86.7087 8.48159C86.7019 8.94053 86.5675 9.38853 86.3205 9.77545C86.1907 9.98912 86.0483 10.195 85.8943 10.3919L85.6584 10.6964L85.4529 10.9171C85.1941 11.2139 84.9658 11.4423 84.6918 11.6782C83.6947 12.6372 82.652 13.5048 81.6474 14.3801C80.8922 14.9653 80.2008 15.6286 79.5848 16.3589C79.4643 16.529 79.3599 16.7099 79.2728 16.8993C79.2413 16.9654 79.2158 17.0342 79.1967 17.1048C79.151 17.1505 79.2956 17.1048 79.0521 17.1048C78.9836 17.1048 78.9683 17.1048 78.9151 17.1048C78.8618 17.1048 78.8313 17.1505 78.8466 17.1048C78.8802 17.0744 78.9041 17.0347 78.9151 16.9906C78.9151 16.9906 78.9151 16.9221 78.9607 16.8156C79.0064 16.709 78.9607 16.8156 78.9607 16.7775C79.0266 16.7828 79.0928 16.7828 79.1586 16.7775C79.2589 16.7547 79.358 16.7267 79.4554 16.6938L79.7218 16.6025C79.8958 16.4963 80.0612 16.3767 80.2165 16.2448L80.7874 15.7653L81.9366 14.7682C82.6977 14.0985 83.4588 13.4363 84.3265 12.8122C84.6571 12.5605 85.0027 12.3292 85.3615 12.1196C85.755 11.8632 86.1903 11.6777 86.6478 11.5716C87.0073 11.4911 87.3841 11.5539 87.6981 11.7467C88.0052 11.9629 88.2155 12.2907 88.2842 12.66C88.3207 12.7889 88.3412 12.9218 88.345 13.0558C88.3531 13.1266 88.3531 13.1981 88.345 13.2689C88.353 13.3702 88.353 13.472 88.345 13.5733C88.2664 13.8415 88.1511 14.0976 88.0025 14.3344C87.548 15.0116 87.0389 15.6505 86.4804 16.2448C85.94 16.8232 85.392 17.3788 84.8516 17.9344L83.4588 19.3957C82.8765 20.0333 82.2618 20.6405 81.6169 21.2147C81.3212 21.4935 80.9678 21.7039 80.5819 21.8312C80.4377 21.9014 80.3023 21.9882 80.1785 22.09C80.0795 22.1509 80.0034 22.1433 79.9273 22.0063C79.8354 21.793 79.8089 21.5572 79.8512 21.3289C80.0078 20.5355 80.3671 19.7961 80.8939 19.1826C81.7996 18.041 82.789 17.0211 83.7632 15.9936L85.2093 14.4714C85.4478 14.2228 85.6685 13.9691 85.8715 13.7103C86.047 13.5076 86.2025 13.2884 86.3358 13.0558V13.0177L86.4499 13.071C86.5869 13.1395 86.8229 13.1699 86.9066 13.208L87.074 13.2461H86.3129C86.3091 13.2132 86.3091 13.18 86.3129 13.1471C86.4268 13.1189 86.5386 13.0833 86.6478 13.0406C86.9979 12.9797 87.1653 12.6981 87.0816 12.8427C87.0615 12.8866 87.0462 12.9325 87.036 12.9797C87.036 13.0329 87.036 13.0862 87.036 13.208C87.0206 13.3089 87.0206 13.4115 87.036 13.5124C87.036 13.5124 87.036 13.6951 87.036 13.6723C86.8359 13.7417 86.6444 13.8336 86.4651 13.9463C86.2216 14.0909 85.9476 14.2888 85.704 14.479C84.6309 15.2401 83.5654 16.2448 82.4542 17.2266L81.8224 17.7746L81.4723 18.0638L81.2745 18.216L81.1679 18.2997L81.0005 18.4063C80.7929 18.5361 80.5706 18.6409 80.3383 18.7183C80.1589 18.7823 79.976 18.8356 79.7903 18.8782C79.5411 18.9393 79.2858 18.9725 79.0292 18.9771C78.8214 18.9707 78.6148 18.9426 78.4127 18.8934C78.2584 18.8449 78.1102 18.7785 77.9713 18.6955C77.8106 18.61 77.6684 18.4936 77.5527 18.353C77.3172 18.087 77.1615 17.7598 77.1036 17.4093C77.0929 17.2953 77.0929 17.1807 77.1036 17.0668C77.0943 16.968 77.0943 16.8686 77.1036 16.7699C77.1386 16.5075 77.2104 16.2513 77.3168 16.0088C77.4645 15.6633 77.6482 15.3342 77.8647 15.027C78.065 14.7351 78.289 14.4601 78.5345 14.205C78.7628 13.9691 78.9759 13.7712 79.1891 13.5733C80.0491 12.8122 80.8787 12.1196 81.6855 11.4118C82.0888 11.0617 82.4465 10.704 82.8575 10.3463L83.4055 9.81351L83.6643 9.53951L83.8622 9.31879L83.8241 9.43296Z" fill="#4E9459"/>
<path d="M37.9073 32.83C38.8434 30.8664 39.8481 28.918 40.9517 27.0229C41.2409 26.5358 41.4692 26.1095 41.8269 25.5768C42.186 25.0688 42.6109 24.6107 43.0904 24.2144C43.9668 23.4873 44.9067 22.8403 45.8988 22.2812C47.2992 21.4668 48.7073 20.721 50.1457 20.0512C52.6878 18.8639 55.2527 17.7679 57.7948 16.6872C59.0582 16.1316 60.314 15.5607 61.5393 14.9519C62.7609 14.3631 63.9297 13.6705 65.0328 12.8817C66.8752 11.3192 68.5556 9.5751 70.0484 7.67578C71.0378 6.46563 71.9816 5.21744 72.9482 3.96924C73.4429 3.35275 73.9148 2.72104 74.4704 2.13499C75.026 1.54895 75.5435 0.970517 76.1143 0.414917C76.8222 -0.277681 76.8754 -0.0569631 76.5101 0.734577C76.3351 1.12274 76.0763 1.67073 75.749 2.31766C75.5816 2.63732 75.4141 2.98742 75.201 3.33753C74.9879 3.68763 74.7368 4.04535 74.4399 4.41067C72.5773 7.07423 70.5219 9.59768 68.2903 11.9608C67.7118 12.5468 67.1106 13.11 66.4865 13.658C65.8358 14.2304 65.1324 14.7401 64.3858 15.1802C62.9602 16.0109 61.4861 16.7556 59.9715 17.4102C56.4172 19.0085 52.7335 20.6296 49.2248 22.3726C47.3126 23.2494 45.5218 24.3699 43.8971 25.7062C43.5376 26.0268 43.2273 26.3986 42.9762 26.8097L42.1923 28.1721C41.6519 29.1006 41.142 30.052 40.6701 31.011C39.4447 33.378 38.3411 35.8135 37.2451 38.249C36.4007 40.0642 35.7058 41.9453 35.1673 43.8735C34.9314 44.8325 34.6346 45.8676 35.1065 46.3623C35.5783 46.857 36.5069 46.8951 37.3365 46.4765C38.6422 45.7509 39.8011 44.7882 40.7538 43.6376C41.7522 42.514 42.6274 41.2867 43.3644 39.9767C43.6916 39.4059 43.9732 38.8198 44.2548 38.2186C44.7724 37.1074 45.0159 36.3463 45.2747 35.8287C45.4427 35.4441 45.683 35.0953 45.9825 34.8013C46.081 34.694 46.1879 34.5947 46.3022 34.5044C46.4696 34.4055 46.5534 34.6262 46.5762 35.1209C46.5704 35.8638 46.4471 36.601 46.2109 37.3053C45.2845 40.1298 43.7666 42.7245 41.7584 44.9162C40.7149 46.1138 39.471 47.1208 38.0824 47.8921C37.6677 48.1007 37.2277 48.2542 36.7733 48.3488C36.5232 48.4019 36.2677 48.4249 36.0122 48.4173H35.5936C35.4493 48.3848 35.307 48.3441 35.1673 48.2955C34.8904 48.2105 34.6321 48.0737 34.4063 47.8921C34.1486 47.7236 33.9262 47.5064 33.7517 47.2528C33.4143 46.753 33.2462 46.158 33.2722 45.5556C33.2827 44.9067 33.3644 44.261 33.5158 43.63C33.6528 43.0744 33.805 42.5264 33.98 41.986C34.3225 40.9129 34.7411 39.8625 35.1521 38.8351C36.0198 36.7877 36.9103 34.8241 37.8388 32.8148L37.9073 32.83Z" fill="#4E9459"/>
<path d="M71.8443 32.2142C73.1154 30.3495 74.4473 28.5381 75.802 26.7571C76.2968 26.1025 76.7534 25.4252 77.2557 24.7858C78.1386 23.6594 79.0291 22.5026 79.9729 21.4142C80.9166 20.3258 81.8756 19.2451 82.8574 18.1871C83.7251 17.251 84.6003 16.2996 85.4832 15.3787C86.5712 14.1057 87.8877 13.0473 89.3648 12.2582C89.8595 12.0299 89.8976 12.3267 89.6844 12.7986C89.373 13.4564 88.9478 14.0542 88.4286 14.5643C86.1073 16.7563 83.9458 19.2375 81.7158 21.6882C80.3686 23.1343 79.2041 24.8391 77.9636 26.4679C76.6088 28.2488 75.2693 30.045 73.9982 31.8793C73.2371 33.0057 72.4761 34.1626 71.715 35.3194C70.6266 37.0928 69.5154 38.8737 68.5564 40.708C67.7953 42.1312 67.2321 43.5925 66.646 45.0538C66.5243 45.3735 66.4101 45.6932 66.2883 46.0204C65.8241 47.223 65.5729 47.5426 65.1239 47.7101C65.033 47.753 64.9388 47.7887 64.8423 47.8166C64.5987 47.8775 64.4465 47.2534 64.6748 46.2944C65.0353 44.8423 65.5269 43.4259 66.1437 42.0627C66.7678 40.6852 67.4833 39.3304 68.2367 38.0061C69.3632 36.0425 70.52 34.1093 71.7987 32.1989L71.8443 32.2142Z" fill="#4E9459"/>
<path d="M21.9396 39.3171C20.1282 39.7128 18.3142 40.0908 16.4977 40.4511C15.828 40.5805 15.1734 40.7479 14.5113 40.8697C12.1671 41.2883 9.8153 41.6308 7.46351 42.0342C6.42081 42.194 5.37811 42.3843 4.34301 42.5593C3.68086 42.6811 3.0111 42.7801 2.34133 42.8714C1.66195 42.9094 0.980974 42.9094 0.301592 42.8714C-0.117011 42.8714 -0.0713457 42.7344 0.263537 42.5441C0.423367 42.4376 0.674529 42.3614 0.956135 42.1712L1.41279 41.8896C1.4889 41.8363 1.58023 41.8058 1.66395 41.7374L1.93795 41.6765C4.6094 41.1894 7.30368 40.7936 10.0284 40.3978C11.6648 40.1771 13.3316 39.7585 14.9755 39.4084C16.7869 39.0177 18.5933 38.6067 20.3945 38.1754L23.7205 37.3458C25.3949 36.912 27.0846 36.501 28.7514 36.0443C30.0452 35.6942 31.2934 35.2832 32.6025 34.9408C32.8917 34.8646 33.1734 34.7809 33.4778 34.7276C34.589 34.5222 35.1218 34.7276 35.2892 35.2148C35.3354 35.3017 35.3614 35.398 35.3653 35.4964C35.3653 35.6181 35.2283 35.6714 35.0761 35.8084C34.8558 35.9803 34.5925 36.0883 34.315 36.1205C33.2571 36.364 32.1002 36.7293 30.9357 37.049L27.3814 38.0004C25.5928 38.4722 23.7662 38.8832 21.9472 39.3247L21.9396 39.3171Z" fill="#4E9459"/>
<path d="M66.8738 55.0841C66.8738 55.0004 66.9271 54.9015 66.9575 54.8101C66.988 54.7188 66.9575 54.5818 66.9575 54.5742C66.9575 54.5666 66.9575 54.5742 66.9043 54.3915C66.8226 54.2239 66.7311 54.0613 66.6303 53.9044C66.4172 53.5696 66.166 53.2195 65.8692 52.8846C65.344 52.192 64.7732 51.5222 64.1872 50.8601C63.6011 50.1979 63.1521 49.7793 62.665 49.2237C60.9144 47.2677 59.065 45.3725 57.109 43.5307C56.2489 42.6935 55.3965 41.8715 54.5136 41.1256C53.3892 40.2059 52.1959 39.3739 50.9441 38.6368C50.5635 38.3781 50.632 38.2487 51.1115 38.1193C51.4814 38.015 51.8687 37.9876 52.2496 38.0386C52.6305 38.0897 52.9969 38.2181 53.3263 38.4161C54.7088 39.244 55.9865 40.2355 57.1318 41.3692L58.8062 42.9446C59.3846 43.4774 59.925 44.0406 60.4578 44.6191C61.7364 45.9966 63.1825 47.2981 64.4992 48.6985C65.2603 49.4596 65.9301 50.2207 66.615 51.0655C66.9575 51.4765 67.2924 51.8951 67.6121 52.329C67.9658 52.7835 68.2718 53.2732 68.5254 53.7903C68.6331 54.0297 68.6901 54.2888 68.6928 54.5514C68.6618 55.2092 68.4844 55.8518 68.1737 56.4324C67.863 57.013 67.4267 57.517 66.8967 57.9078C66.4809 58.2432 66.026 58.5268 65.5419 58.7526C65.0449 59.007 64.506 59.1694 63.9512 59.2321C63.6579 59.2664 63.3616 59.2664 63.0683 59.2321C62.81 59.1691 62.5559 59.0903 62.3072 58.9962C61.8158 58.7907 61.3466 58.5357 60.9068 58.2351C60.2475 57.8187 59.6169 57.3585 59.0193 56.8575C58.4272 56.3802 57.8607 55.8721 57.3221 55.3353C57.0937 55.0918 56.8654 54.8558 56.6523 54.5742C55.8227 53.6533 55.8303 53.1357 55.8912 52.7476C55.8971 52.6574 55.9124 52.5681 55.9369 52.4812C55.9369 52.367 56.1119 52.3746 56.3479 52.4812C56.6953 52.5983 57.0216 52.7705 57.3144 52.9911L58.8366 54.2469C59.339 54.6808 59.8337 55.1222 60.3588 55.5256C60.884 55.929 61.3787 56.3247 61.881 56.652C62.323 56.968 62.8179 57.2025 63.3423 57.3446C63.4261 57.3827 63.4869 57.3446 63.5631 57.3446C63.6392 57.3446 63.7077 57.3446 63.7609 57.3446C63.819 57.3368 63.8779 57.3368 63.936 57.3446C64.0264 57.3253 64.1154 57.2999 64.2024 57.2685C64.5999 57.1391 64.9806 56.9628 65.3364 56.7433C66.023 56.3827 66.5616 55.7929 66.8586 55.0765L66.8738 55.0841Z" fill="#4E9459"/>
<path d="M55.4359 60.4746C56.1369 61.0164 56.9042 61.4666 57.7192 61.8142C57.9994 61.9093 58.2871 61.9806 58.5792 62.0273C59.0118 62.1491 59.4737 62.1113 59.8807 61.9207C60.4109 61.6388 60.9197 61.3183 61.4029 60.9617C61.8197 60.6518 62.1889 60.2826 62.4989 59.8658C62.8531 59.3332 63.1783 58.7819 63.4731 58.2142C63.572 58.0391 63.8232 58.1076 64.0439 58.3664C64.1796 58.5287 64.2735 58.7218 64.3173 58.9288C64.3611 59.1358 64.3535 59.3504 64.2951 59.5537C63.9954 60.3269 63.5275 61.0236 62.9251 61.5935C62.3718 62.141 61.7378 62.6005 61.0452 62.9558C60.5775 63.2533 60.0628 63.4695 59.523 63.5951C58.9956 63.7024 58.4521 63.7024 57.9247 63.5951C56.9117 63.3411 55.9474 62.9219 55.0706 62.3546C54.5378 62.0273 54.0355 61.6696 53.5484 61.3042C52.7873 60.7486 52.1023 60.1321 51.3945 59.5461C50.8465 59.0894 50.2528 58.6861 49.7048 58.2066C49.576 58.1112 49.4539 58.0069 49.3395 57.8945C48.9209 57.4607 48.9057 57.2095 49.2406 56.8062C49.3167 56.7148 49.3928 56.6159 49.4765 56.5322C49.6079 56.4015 49.7824 56.3232 49.9673 56.3119C50.1523 56.3007 50.335 56.3574 50.4812 56.4713C51.4771 57.1685 52.4255 57.9313 53.32 58.7546C54.0026 59.3678 54.7191 59.9421 55.4663 60.4746H55.4359Z" fill="#4E9459"/>
<path d="M49.1333 64.9563C49.8717 65.5271 50.6675 66.0193 51.5079 66.4252C51.7979 66.5435 52.0954 66.6426 52.3984 66.722C52.6254 66.7932 52.8609 66.8342 53.0986 66.8438C53.1897 66.8523 53.2815 66.8523 53.3726 66.8438C53.4868 66.8438 53.6466 66.7373 53.776 66.6916C54.3371 66.4821 54.8712 66.2062 55.3667 65.8696C55.7895 65.5687 56.1555 65.1951 56.4474 64.766C56.7785 64.2202 57.0515 63.6411 57.2618 63.0383C57.3227 62.8785 57.6271 62.8557 57.924 63.0916C58.1034 63.2377 58.2369 63.4324 58.3085 63.6525C58.38 63.8725 58.3866 64.1085 58.3273 64.3322C58.0623 65.1728 57.5697 65.9236 56.9041 66.5013C56.2982 67.0603 55.5936 67.5016 54.8263 67.8028L54.1565 68.0768L53.9815 68.1529L53.7455 68.2366C53.5857 68.2899 53.4335 68.2975 53.2736 68.3356C52.7215 68.3795 52.1661 68.3175 51.6373 68.1529C50.63 67.8024 49.6789 67.3076 48.8136 66.684C48.2885 66.3339 47.7785 65.9229 47.2914 65.5652C46.5303 64.9791 45.8377 64.3322 45.1223 63.7157C44.5743 63.2286 43.973 62.8176 43.4479 62.2849C43.3261 62.1707 43.2043 62.0565 43.0978 61.9347C42.702 61.4553 42.6792 61.1737 42.938 60.8768C42.9927 60.7984 43.0538 60.7246 43.1206 60.6561C43.3566 60.4582 43.6838 60.5115 44.0035 60.7551C44.9853 61.4629 45.9291 62.3229 46.9185 63.1525C47.6796 63.769 48.395 64.3855 49.2018 64.9259L49.1333 64.9563Z" fill="#4E9459"/>
<path d="M36.66 63.1966C37.619 64.0719 38.5932 64.9471 39.6207 65.7387C39.986 66.0431 40.3818 66.2715 40.7776 66.5607C41.4362 67.0496 42.1195 67.5044 42.8249 67.923C43.5165 68.3162 44.263 68.6036 45.0397 68.7755C45.7244 68.9437 46.4352 68.9773 47.1327 68.8744C47.9497 68.7256 48.6807 68.2745 49.1801 67.611C49.3551 67.4055 49.5758 67.5197 49.6824 67.885C49.7485 68.1603 49.7366 68.4487 49.6478 68.7176C49.5591 68.9865 49.3971 69.2253 49.1801 69.4072C48.7005 69.7975 48.1295 70.0594 47.5209 70.1683C46.96 70.281 46.3857 70.3118 45.816 70.2596C45.2838 70.2192 44.7565 70.13 44.2406 69.9932C43.9804 69.9306 43.7258 69.8465 43.4795 69.7421C43.2145 69.6484 42.9595 69.5286 42.7184 69.3843C41.6136 68.7917 40.5437 68.1361 39.5142 67.4207C38.4106 66.6596 37.3679 65.7691 36.3556 64.8863C35.7239 64.3459 35.1226 63.7751 34.5138 63.2195C33.6004 62.3594 32.7176 61.4613 31.8499 60.5708C31.1649 59.8783 30.4647 59.2313 29.8026 58.5083C29.658 58.3408 29.5133 58.1886 29.3763 58.0136C28.874 57.3666 28.8512 57.0317 29.11 56.7121C29.1628 56.6299 29.224 56.5534 29.2926 56.4838C29.5286 56.2783 29.9167 56.4229 30.2516 56.8186C31.3704 57.9755 32.5882 59.2161 33.8364 60.4415C34.7649 61.3548 35.7163 62.2605 36.6905 63.1357L36.66 63.1966Z" fill="#4E9459"/>
<path d="M16.8322 59.3847L20.2952 58.1822C20.7214 58.0376 21.1248 57.8473 21.5586 57.7103C23.0808 57.2156 24.603 56.8046 26.1252 56.4393C26.8178 56.2871 27.5104 56.0968 28.2106 55.9598C28.6707 55.8539 29.1394 55.7902 29.611 55.7695C30.1142 55.7742 30.6102 55.8885 31.0647 56.1044C31.3539 56.2566 31.1941 56.4621 30.9049 56.6829C30.5782 56.9543 30.2076 57.1679 29.8089 57.3146C28.2487 57.5124 26.5134 57.9539 24.7552 58.3344C23.6981 58.6237 22.6587 58.9744 21.6424 59.3847L18.1794 60.6101L16.0407 61.3712L12.7984 62.5433C11.9612 62.8553 11.1621 63.2511 10.2868 63.5251C10.0923 63.5883 9.89404 63.6392 9.69313 63.6773C8.93204 63.8143 8.59716 63.6773 8.46016 63.2816C8.4196 63.1972 8.39141 63.1075 8.37644 63.0152C8.37071 62.9413 8.38216 62.8672 8.40989 62.7985C8.43762 62.7299 8.48087 62.6685 8.53627 62.6194C8.68278 62.4945 8.85028 62.3966 9.03098 62.3302C10.3325 61.7365 11.8546 61.2114 13.3768 60.6177L16.8094 59.3391L16.8322 59.3847Z" fill="#4E9459"/>
<path d="M15.3481 52.853C14.8366 51.793 14.4041 50.6966 14.0543 49.5727C13.9173 49.1693 13.765 48.7659 13.6661 48.3473C13.3067 46.8535 13.1835 45.3127 13.3008 43.7808C13.3464 43.111 13.4302 42.4336 13.5367 41.7715C13.6076 41.341 13.7093 40.9163 13.8412 40.5004C13.9899 40.0857 14.2087 39.6995 14.4881 39.3588C14.6555 39.1381 14.9143 39.3588 15.1274 39.6708C15.3707 40.0368 15.4858 40.4731 15.4547 40.9114C15.0295 42.3807 14.8142 43.9028 14.8154 45.4323C14.845 46.4147 15.0221 47.3871 15.3405 48.3169C15.6328 49.3744 16.0068 50.4075 16.4593 51.407C16.7409 52.0311 17.053 52.6399 17.3879 53.2336C17.8916 54.1409 18.4749 55.0018 19.1308 55.8061C19.6445 56.3992 20.2184 56.9374 20.8432 57.412L21.239 57.6936C21.7109 58.0589 21.7337 58.2188 21.6957 58.6145C21.6957 58.7059 21.6957 58.8048 21.6957 58.8885C21.7413 59.1854 21.2238 59.3528 20.6758 59.1169C19.9453 58.7605 19.2812 58.2817 18.7122 57.7012C18.151 57.1447 17.6416 56.5384 17.19 55.8898C16.4982 54.9227 15.88 53.905 15.3405 52.8454L15.3481 52.853Z" fill="#4E9459"/>
<path d="M76.7071 17.9046C76.5207 17.4775 76.3019 17.0653 76.0525 16.6716L75.6796 16.0704L75.2305 15.5148C74.9975 15.2413 74.743 14.9868 74.4695 14.7537L73.8225 14.0839L73.1071 13.475C72.631 13.0521 72.122 12.6678 71.5849 12.3258C71.0997 12.0299 70.5905 11.7753 70.0627 11.5647C69.3701 11.3255 68.7002 11.0249 68.061 10.6666C67.8631 10.5448 67.9621 10.3013 68.2361 10.0958C68.4065 9.97237 68.6007 9.88567 68.8064 9.84113C69.0121 9.79659 69.2248 9.79518 69.431 9.83698C69.8238 9.90498 70.2088 10.0121 70.5802 10.1566C70.9456 10.3089 71.3413 10.4687 71.6762 10.6361C72.0431 10.7998 72.3946 10.9959 72.7265 11.2222C73.0713 11.4337 73.4018 11.6676 73.716 11.9224C74.0889 12.242 74.4771 12.5389 74.8804 12.8281C75.2838 13.1173 75.6415 13.4826 75.9993 13.8175C76.357 14.1524 76.7604 14.6395 77.0724 15.0657C77.3845 15.4919 77.7117 15.9562 77.9629 16.4433C78.1151 16.7401 78.2826 17.037 78.4272 17.3338L78.8153 18.2623C79.1698 19.2153 79.4249 20.2024 79.5764 21.2078C79.7293 21.9802 79.8133 22.7647 79.8276 23.5519C79.8276 23.7346 79.8276 23.9097 79.8276 24.0847C79.8047 24.2255 79.7664 24.3633 79.7134 24.4957C79.6567 24.5906 79.5847 24.6754 79.5003 24.7469C79.3583 24.861 79.1801 24.9204 78.998 24.9143C78.9119 24.9217 78.8253 24.9217 78.7392 24.9143C78.4728 24.9143 78.2749 24.5642 78.1379 24.1532C77.9857 22.9431 77.8259 21.771 77.5976 20.5608C77.413 19.6583 77.1191 18.7816 76.7223 17.9503L76.7071 17.9046Z" fill="#4E9459"/>
<path d="M76.0075 62.2693C75.9009 62.2693 75.9009 62.1323 76.0075 61.8659C76.0584 61.7507 76.125 61.6431 76.2054 61.5462C76.2767 61.5084 76.3504 61.4753 76.4261 61.4473C76.4641 61.4473 76.9132 61.531 77.073 61.5386C77.2174 61.5558 77.3585 61.5943 77.4916 61.6528C77.7656 61.7593 78.0472 61.843 78.3288 61.9344C78.3933 61.955 78.4529 61.9887 78.5039 62.0333C78.6867 62.1773 78.9049 62.2693 79.1356 62.2997C79.1545 62.3091 79.1754 62.314 79.1965 62.314C79.2176 62.314 79.2384 62.3091 79.2574 62.2997C79.5218 62.2929 79.7836 62.3531 80.0185 62.4748C80.1825 62.6174 80.3554 62.7496 80.536 62.8705C80.536 62.8705 80.5969 62.8705 80.6045 62.9466C80.6121 63.0227 80.6958 63.0836 80.7567 63.1141C80.8397 63.1569 80.9164 63.2106 80.9851 63.2739C81.0187 63.332 81.0468 63.3931 81.0688 63.4566C81.0738 63.5431 81.0497 63.6289 81.0003 63.7001C80.947 63.7458 80.9546 63.8371 80.9394 63.9132V63.9893C80.7313 64.0981 80.5081 64.175 80.2772 64.2177L79.8815 64.1644L79.4172 64.1187C79.3715 64.1187 79.3335 64.1187 79.2954 64.0502L78.6485 63.9284C78.5343 63.8676 78.3973 63.8676 78.3136 63.7153C78.3136 63.7153 78.2756 63.7153 78.2451 63.7153C78.0365 63.6396 77.8373 63.54 77.6515 63.4185C77.5525 63.3652 77.446 63.3272 77.3394 63.2815C77.2329 63.2358 77.3394 63.2815 77.2937 63.2358C77.2481 63.1902 77.2937 63.1902 77.2329 63.1826C76.9817 63.0836 76.7686 62.9162 76.4718 62.8325C76.4109 62.8325 76.2054 62.5585 76.1369 62.5356C76.0684 62.5128 76.0532 62.2616 76.0075 62.2693Z" fill="#4E9459"/>
<path d="M66.4345 71.1288C66.3432 71.0527 66.5106 70.9842 66.8227 70.9157C66.974 70.8927 67.128 70.8927 67.2793 70.9157C67.3581 70.9538 67.4344 70.997 67.5077 71.045C67.6068 71.2527 67.6932 71.4662 67.7664 71.6844C67.8187 71.8281 67.842 71.9807 67.8349 72.1334C67.8349 72.4379 67.8349 72.7423 67.8349 73.0391C67.8316 73.1082 67.8135 73.1757 67.7816 73.237C67.679 73.4445 67.6343 73.6759 67.6523 73.9068C67.6429 73.9244 67.6381 73.9439 67.6381 73.9638C67.6381 73.9838 67.6429 74.0034 67.6523 74.0209C67.7195 74.2702 67.7195 74.5328 67.6523 74.782C67.5405 74.9614 67.4388 75.1469 67.3478 75.3376C67.3478 75.3376 67.3478 75.3909 67.2869 75.4061C67.2261 75.4214 67.1576 75.5127 67.1423 75.5736C67.1202 75.659 67.0814 75.7392 67.0282 75.8095C67.0282 75.8095 66.9216 75.878 66.8531 75.9161C66.7579 75.9374 66.6591 75.9374 66.5639 75.9161C66.4954 75.8704 66.3965 75.9161 66.3127 75.9161H66.2442C66.0912 75.7448 65.9678 75.5494 65.8789 75.3376V74.9647C65.8789 74.782 65.8789 74.5841 65.8789 74.5461C65.8789 74.508 65.8789 74.4624 65.9322 74.4243C65.9855 74.3863 65.8789 73.8459 65.8865 73.8307C65.8941 73.8154 65.8865 73.6023 66.0083 73.5034C66.0131 73.4926 66.0156 73.4809 66.0156 73.4691C66.0156 73.4573 66.0131 73.4457 66.0083 73.4349C66.0172 73.2406 66.0531 73.0485 66.1149 72.8641C66.1224 72.7653 66.1224 72.666 66.1149 72.5672V72.5216C66.1207 72.4991 66.1207 72.4755 66.1149 72.4531C66.1416 72.223 66.1416 71.9906 66.1149 71.7605C66.1149 71.7072 66.2518 71.456 66.2366 71.3951C66.2214 71.3343 66.4726 71.1592 66.4345 71.1288Z" fill="#4E9459"/>
<path d="M20.3634 16.041C20.2568 16.041 20.272 15.9116 20.3634 15.6757C20.4043 15.568 20.4664 15.4697 20.546 15.3865C20.6108 15.3502 20.6798 15.322 20.7515 15.3027C20.7515 15.3027 21.2082 15.4093 21.3604 15.4397C21.4984 15.465 21.6302 15.5167 21.7486 15.592L22.5097 15.9953C22.5647 16.027 22.6137 16.0682 22.6543 16.1171C22.7964 16.2842 22.9764 16.4147 23.1794 16.4977C23.1794 16.4977 23.2403 16.4977 23.286 16.4977C23.5202 16.5654 23.7361 16.685 23.9177 16.8478C24.0319 17.0152 24.1613 17.1598 24.2906 17.3196C24.2906 17.3196 24.3363 17.3196 24.3363 17.3957C24.3363 17.4719 24.382 17.5404 24.4276 17.586C24.491 17.6395 24.5473 17.7009 24.5951 17.7687C24.6045 17.8318 24.6045 17.8959 24.5951 17.959C24.5786 18.0413 24.5359 18.1161 24.4733 18.1721C24.4124 18.1721 24.3972 18.2862 24.3591 18.3547V18.4232C24.1525 18.4577 23.9416 18.4577 23.735 18.4232L23.4078 18.2786L23.0196 18.1264C22.9816 18.1264 22.9587 18.0655 22.9359 18.0351C22.9131 18.0046 22.4107 17.822 22.3955 17.7991C22.3803 17.7763 22.19 17.7078 22.152 17.5556C22.152 17.5556 22.152 17.5556 22.1063 17.5023C21.9414 17.4002 21.7882 17.2803 21.6496 17.1446C21.5707 17.0819 21.4867 17.0258 21.3985 16.9771C21.3985 16.9771 21.3985 16.9771 21.3985 16.9315C21.3877 16.9082 21.3721 16.8875 21.3528 16.8706C21.1663 16.7306 20.9705 16.6035 20.7668 16.49C20.7211 16.49 20.5613 16.2313 20.5004 16.2084C20.4395 16.1856 20.4014 16.0334 20.3634 16.041Z" fill="#4E9459"/>
<path d="M34.2228 4.50939C34.1543 4.37239 34.3522 4.30389 34.7023 4.27345C34.8673 4.27276 35.0306 4.30646 35.1818 4.37239C35.2595 4.45093 35.3284 4.5377 35.3873 4.63116C35.3873 4.67683 35.4482 5.39226 35.471 5.64342C35.4887 5.87565 35.4707 6.10922 35.4177 6.33602L35.197 7.70599C35.1826 7.80778 35.149 7.90591 35.0981 7.99521C34.9477 8.31214 34.8648 8.65683 34.8545 9.00747C34.842 9.03628 34.8355 9.06737 34.8355 9.0988C34.8355 9.13023 34.842 9.16132 34.8545 9.19013C34.8767 9.5718 34.8381 9.95457 34.7404 10.3242C34.5988 10.603 34.4742 10.8902 34.3674 11.1842C34.3674 11.2299 34.3674 11.2755 34.3065 11.306C34.2457 11.3364 34.1695 11.481 34.1467 11.5724C34.1228 11.7022 34.0872 11.8296 34.0402 11.9529C33.9916 12.0271 33.9297 12.0916 33.8575 12.1432C33.7648 12.1812 33.6609 12.1812 33.5683 12.1432C33.4998 12.0823 33.4008 12.1432 33.3171 12.1432C33.2842 12.147 33.251 12.147 33.2182 12.1432C33.0445 11.864 32.9112 11.5617 32.8224 11.2451L32.7539 9.92078C32.7582 9.84979 32.7819 9.78134 32.8224 9.7229C32.8224 9.68484 32.8224 8.76392 32.8224 8.72586C32.8681 8.5432 32.8224 8.34531 33.0127 8.18548C33.0275 8.14887 33.0275 8.10793 33.0127 8.07132C33.0679 7.75308 33.1493 7.43996 33.2562 7.13517C33.2972 6.9771 33.3303 6.81707 33.3552 6.65568C33.3658 6.6278 33.3812 6.60203 33.4008 6.57957C33.4216 6.54565 33.4394 6.51 33.4541 6.47302C33.5503 6.10234 33.624 5.72617 33.6748 5.34659C33.6748 5.25526 33.9184 4.87471 33.9184 4.77577C33.9184 4.67683 34.2761 4.57789 34.2228 4.50939Z" fill="#4E9459"/>
<path d="M44.7208 41.6048C44.3555 42.1528 43.9597 42.6856 43.5487 43.1955C43.4041 43.3858 43.2519 43.5685 43.0921 43.7511C42.5237 44.3729 41.9161 44.9576 41.273 45.5017L40.4206 46.2627C40.0538 46.5626 39.6617 46.83 39.2485 47.0619C39.1191 47.1304 39.0963 47.0619 39.1572 46.9401C39.2519 46.7441 39.3837 46.5683 39.5453 46.4226C39.8878 46.0801 40.2456 45.7756 40.6033 45.4712C40.961 45.1668 41.3187 44.8471 41.6688 44.5198C42.0879 44.1169 42.4747 43.6818 42.8257 43.2184C43.2315 42.7304 43.6125 42.2224 43.9673 41.6962C44.188 41.3689 44.4011 41.0264 44.599 40.6839C44.9006 40.1644 45.1725 39.6283 45.4134 39.078C45.5885 38.6442 45.7255 38.2103 45.8701 37.7765L45.9614 37.4873C46.0984 37.1372 46.1897 37.0459 46.3496 37.0078H46.4561C46.5627 37.0078 46.6007 37.1829 46.5627 37.4721C46.4902 37.9004 46.3859 38.3227 46.2506 38.7355C46.101 39.1519 45.9256 39.5586 45.7255 39.9533C45.43 40.5531 45.0996 41.135 44.736 41.6962L44.7208 41.6048Z" fill="#4E9459"/>
</svg>
