<svg width="44" height="45" viewBox="0 0 44 45" fill="none" xmlns="http://www.w3.org/2000/svg">
<rect x="0.75" y="0.75" width="42.5" height="43.5" rx="21.25" stroke="white" stroke-opacity="0.5" stroke-width="1.5"/>
<g clip-path="url(#clip0_258_421)">
<g clip-path="url(#clip1_258_421)">
<g clip-path="url(#clip2_258_421)">
<path d="M26.9992 17.2877C26.7871 17.2877 26.5797 17.3506 26.4034 17.4684C26.227 17.5863 26.0895 17.7538 26.0083 17.9498C25.9271 18.1457 25.9059 18.3614 25.9473 18.5694C25.9886 18.7775 26.0907 18.9686 26.2408 19.1186C26.3909 19.2685 26.5819 19.3707 26.79 19.4121C26.9979 19.4535 27.2137 19.4322 27.4096 19.351C27.6056 19.2699 27.773 19.1324 27.8909 18.956C28.0088 18.7797 28.0717 18.5723 28.0717 18.3602C28.0717 18.0757 27.9588 17.8029 27.7575 17.6018C27.5564 17.4007 27.2836 17.2877 26.9992 17.2877ZM31.1104 19.4506C31.0931 18.709 30.9542 17.9753 30.6993 17.2787C30.4721 16.6827 30.1183 16.143 29.6626 15.6968C29.2199 15.2387 28.6791 14.8872 28.0806 14.669C27.3858 14.4064 26.6514 14.2643 25.9088 14.2489C24.9614 14.1953 24.6576 14.1953 22.2266 14.1953C19.7956 14.1953 19.4917 14.1953 18.5443 14.2489C17.8017 14.2643 17.0673 14.4064 16.3725 14.669C15.7752 14.8894 15.2347 15.2406 14.7906 15.6968C14.3324 16.1394 13.981 16.6803 13.7628 17.2787C13.5001 17.9735 13.3581 18.708 13.3427 19.4506C13.2891 20.3979 13.2891 20.7018 13.2891 23.1328C13.2891 25.5638 13.2891 25.8677 13.3427 26.8151C13.3581 27.5576 13.5001 28.2922 13.7628 28.9869C13.981 29.5853 14.3324 30.1263 14.7906 30.5688C15.2347 31.025 15.7752 31.3761 16.3725 31.5966C17.0673 31.8593 17.8017 32.0013 18.5443 32.0167C19.4917 32.0703 19.7956 32.0703 22.2266 32.0703C24.6576 32.0703 24.9614 32.0703 25.9088 32.0167C26.6514 32.0013 27.3858 31.8593 28.0806 31.5966C28.6791 31.3784 29.2199 31.0269 29.6626 30.5688C30.1204 30.1242 30.4744 29.584 30.6993 28.9869C30.9542 28.2902 31.0931 27.5567 31.1104 26.8151C31.1104 25.8677 31.164 25.5638 31.164 23.1328C31.164 20.7018 31.164 20.3979 31.1104 19.4506ZM29.5017 26.7078C29.4952 27.2752 29.3925 27.8372 29.1978 28.3702C29.0551 28.7592 28.8259 29.1106 28.5275 29.398C28.2376 29.6935 27.8869 29.9221 27.4997 30.0683C26.9668 30.2629 26.4046 30.3656 25.8373 30.3722C24.9436 30.4169 24.6129 30.4258 22.2623 30.4258C19.9117 30.4258 19.5811 30.4258 18.6873 30.3722C18.0982 30.3832 17.5117 30.2924 16.9534 30.1041C16.5832 29.9505 16.2486 29.7223 15.9703 29.4337C15.6737 29.1467 15.4473 28.7949 15.3089 28.4059C15.0907 27.8654 14.9697 27.2905 14.9514 26.7078C14.9514 25.8141 14.8978 25.4834 14.8978 23.1328C14.8978 20.7822 14.8978 20.4516 14.9514 19.5578C14.9554 18.9778 15.0613 18.403 15.2643 17.8597C15.4216 17.4824 15.6631 17.1462 15.9703 16.8766C16.2418 16.5693 16.5774 16.3252 16.9534 16.1616C17.4982 15.965 18.0724 15.8622 18.6516 15.8577C19.5453 15.8577 19.876 15.8041 22.2266 15.8041C24.5771 15.8041 24.9078 15.8041 25.8016 15.8577C26.369 15.8642 26.931 15.9669 27.464 16.1616C27.8701 16.3123 28.2346 16.5574 28.5275 16.8766C28.8205 17.1511 29.0493 17.4867 29.1978 17.8597C29.3965 18.4039 29.4993 18.9785 29.5017 19.5578C29.5464 20.4516 29.5553 20.7822 29.5553 23.1328C29.5553 25.4834 29.5464 25.8141 29.5017 26.7078ZM22.2266 18.5479C21.3201 18.5496 20.4346 18.82 19.6817 19.3249C18.9289 19.8298 18.3427 20.5465 17.997 21.3844C17.6514 22.2224 17.5618 23.144 17.7398 24.0328C17.9177 24.9216 18.3551 25.7376 18.9966 26.3779C19.6382 27.0184 20.4552 27.4542 21.3443 27.6303C22.2334 27.8066 23.1549 27.7151 23.9922 27.3678C24.8294 27.0206 25.545 26.4329 26.0483 25.6792C26.5517 24.9253 26.8204 24.0392 26.8204 23.1328C26.8216 22.5296 26.7035 21.9322 26.4729 21.3748C26.2425 20.8174 25.904 20.3111 25.477 19.885C25.0501 19.4589 24.5431 19.1214 23.9853 18.8919C23.4274 18.6624 22.8297 18.5455 22.2266 18.5479ZM22.2266 26.109C21.6379 26.109 21.0625 25.9345 20.5731 25.6075C20.0837 25.2804 19.7022 24.8156 19.4769 24.2717C19.2517 23.7279 19.1927 23.1295 19.3076 22.5522C19.4224 21.9749 19.7059 21.4446 20.1221 21.0283C20.5383 20.6121 21.0686 20.3287 21.6459 20.2138C22.2233 20.099 22.8217 20.1579 23.3655 20.3832C23.9094 20.6084 24.3742 20.9899 24.7011 21.4793C25.0281 21.9688 25.2027 22.5442 25.2027 23.1328C25.2027 23.5237 25.1257 23.9107 24.9763 24.2717C24.8267 24.6328 24.6073 24.9609 24.3311 25.2373C24.0547 25.5137 23.7266 25.7329 23.3655 25.8825C23.0044 26.032 22.6174 26.109 22.2266 26.109Z" fill="white"/>
</g>
</g>
</g>
<defs>
<clipPath id="clip0_258_421">
<rect width="19.6842" height="18.5263" fill="white" transform="translate(12.1582 13.7344)"/>
</clipPath>
<clipPath id="clip1_258_421">
<rect width="19.6842" height="18.5263" fill="white" transform="translate(12.1582 13.7344)"/>
</clipPath>
<clipPath id="clip2_258_421">
<rect width="19.6842" height="18.5263" fill="white" transform="translate(12.1582 13.7344)"/>
</clipPath>
</defs>
</svg>
