<svg width="44" height="45" viewBox="0 0 44 45" fill="none" xmlns="http://www.w3.org/2000/svg">
<rect x="0.75" y="0.75" width="42.5" height="43.5" rx="21.25" stroke="white" stroke-opacity="0.5" stroke-width="1.5"/>
<g clip-path="url(#clip0_258_411)">
<g clip-path="url(#clip1_258_411)">
<g clip-path="url(#clip2_258_411)">
<path d="M23.0717 20.5476H27.4717L26.9829 22.5031H23.0717V31.3031H21.1162V22.5031H17.2051V20.5476H21.1162V18.7172C21.1162 16.9738 21.2981 16.3412 21.6383 15.7037C21.9717 15.0738 22.4868 14.5587 23.1167 14.2253C23.7542 13.885 24.3869 13.7031 26.1302 13.7031C26.6406 13.7031 27.0885 13.752 27.4717 13.8498V15.6587H26.1302C24.8357 15.6587 24.4416 15.7349 24.0397 15.9501C23.7425 16.1085 23.5215 16.3294 23.3631 16.6267C23.148 17.0285 23.0717 17.4226 23.0717 18.7172V20.5476Z" fill="white" stroke="white" stroke-width="0.926316"/>
</g>
</g>
</g>
<defs>
<clipPath id="clip0_258_411">
<rect width="12.7368" height="19.6842" fill="white" transform="translate(15.6309 13.1562)"/>
</clipPath>
<clipPath id="clip1_258_411">
<rect width="12.7368" height="19.6842" fill="white" transform="translate(15.6309 13.1562)"/>
</clipPath>
<clipPath id="clip2_258_411">
<rect width="12.7368" height="19.6842" fill="white" transform="translate(15.6309 13.1562)"/>
</clipPath>
</defs>
</svg>
