<svg width="44" height="45" viewBox="0 0 44 45" fill="none" xmlns="http://www.w3.org/2000/svg">
<rect x="0.75" y="0.75" width="42.5" height="43.5" rx="21.25" stroke="white" stroke-opacity="0.5" stroke-width="1.5"/>
<g clip-path="url(#clip0_258_416)">
<g clip-path="url(#clip1_258_416)">
<g clip-path="url(#clip2_258_416)">
<path d="M30.1423 20.1646C30.1423 20.1646 29.9798 19.0144 29.4798 18.5093C28.8468 17.8446 28.139 17.8413 27.8144 17.8022C25.49 17.6328 21.9999 17.6328 21.9999 17.6328H21.9934C21.9934 17.6328 18.5034 17.6328 16.1789 17.8022C15.8542 17.8413 15.1465 17.8446 14.5134 18.5093C14.0134 19.0144 13.8544 20.1646 13.8544 20.1646C13.8544 20.1646 13.6855 21.5168 13.6855 22.8657V24.13C13.6855 25.4789 13.8511 26.8311 13.8511 26.8311C13.8511 26.8311 14.0134 27.9813 14.5102 28.4863C15.1432 29.1511 15.9744 29.1283 16.3445 29.2C17.6755 29.327 21.9967 29.3661 21.9967 29.3661C21.9967 29.3661 25.49 29.3596 27.8144 29.1935C28.139 29.1543 28.8468 29.1511 29.4798 28.4863C29.9798 27.9813 30.1423 26.8311 30.1423 26.8311C30.1423 26.8311 30.3077 25.4822 30.3077 24.13V22.8657C30.3077 21.5168 30.1423 20.1646 30.1423 20.1646ZM20.2793 25.6646V20.9759L24.7692 23.3284L20.2793 25.6646Z" fill="white"/>
</g>
</g>
</g>
<defs>
<clipPath id="clip0_258_416">
<rect width="18.5263" height="12.7368" fill="white" transform="translate(12.7363 16.6328)"/>
</clipPath>
<clipPath id="clip1_258_416">
<rect width="18.5263" height="12.7368" fill="white" transform="translate(12.7363 16.6328)"/>
</clipPath>
<clipPath id="clip2_258_416">
<rect width="18.5263" height="12.7368" fill="white" transform="translate(12.7363 16.6328)"/>
</clipPath>
</defs>
</svg>
