<svg width="96" height="84" viewBox="0 0 96 84" fill="none" xmlns="http://www.w3.org/2000/svg">
<path d="M63.1448 10.9182C57.9364 10.7463 52.6593 10.8408 47.3909 10.8408C42.1224 10.8408 36.8711 11.0557 31.6284 11.3651C27.7952 11.58 23.9878 11.9495 20.1976 12.3879C16.8696 12.749 13.5683 13.3231 10.3138 14.1068C8.7326 14.4672 7.19414 14.9944 5.72428 15.6796C5.06498 15.9757 4.45601 16.3729 3.91941 16.8571L3.64439 17.218C3.57784 17.3295 3.52311 17.4476 3.48109 17.5704L3.34357 18.1033L3.22325 18.6877C2.94932 20.327 2.75999 21.9794 2.65601 23.6382C2.52709 25.3571 2.44114 26.9987 2.37239 28.6832C2.23487 32.0609 2.1919 35.4386 2.20049 38.8248C2.20049 44.8411 2.49271 50.8573 3.00838 56.7961C3.33498 60.6064 3.79049 64.3995 4.37493 68.1754C4.91342 71.9297 5.69721 75.6448 6.72125 79.2968C7.45179 81.4884 6.84157 81.4626 5.60395 79.7179C4.36633 77.9732 2.93963 74.3635 2.16612 69.9373C0.983553 62.1248 0.303183 54.2446 0.129196 46.3451C-0.15073 38.426 0.0243148 30.4973 0.653466 22.5982C0.782385 21.4036 0.894115 20.2089 1.09179 18.9885C1.19043 18.3483 1.3253 17.7141 1.49574 17.0891C1.6054 16.6959 1.78599 16.3259 2.0286 15.9976L2.38957 15.5249L2.78493 15.1553C3.81256 14.3092 4.97455 13.6411 6.22276 13.1786C7.41144 12.7298 8.62535 12.351 9.85828 12.0441C14.6345 10.9143 19.4904 10.1529 24.3831 9.76652C35.0318 8.82111 45.6977 8.64922 56.3378 8.64062C59.621 8.64062 62.9041 8.70079 66.1872 8.87268C69.4925 9.00776 72.784 9.37827 76.0366 9.98138C77.3002 10.2235 78.5398 10.5773 79.7409 11.0385C80.3715 11.2845 80.9691 11.6078 81.52 12.0011C82.0653 12.4072 82.5363 12.9044 82.9123 13.4708C83.6514 14.5391 84.2575 15.6936 84.7172 16.9086C85.1837 18.0832 85.5854 19.2825 85.9204 20.5012C87.1587 25.3289 88.0207 30.2455 88.4988 35.2065C89.3067 42.8385 89.7622 50.3416 89.9513 57.922C89.9513 59.5894 90.0372 61.2223 90.0372 62.9069C90.0372 69.1466 89.7794 71.1319 89.1778 72.4469C89.0602 72.7455 88.9164 73.0331 88.748 73.3063C88.2668 73.8822 88.0175 71.3382 87.9573 66.8002C87.8628 60.0707 87.6737 53.152 87.2612 46.1732C86.9262 39.1433 86.1251 32.1434 84.8633 25.2196C84.3946 22.6962 83.7014 20.2197 82.792 17.8196C82.3615 16.6886 81.7835 15.6194 81.0731 14.6396C80.9164 14.4319 80.744 14.2366 80.5574 14.0552L80.3168 13.8489L80.0245 13.6427C79.5459 13.3541 79.039 13.1151 78.5119 12.9293C76.0863 12.1588 73.5804 11.6686 71.0432 11.4682C68.4648 11.2018 65.8091 11.0643 63.1705 10.9869L63.1448 10.9182Z" fill="#4E9459"/>
<path d="M61.9079 55.4551C61.1897 55.1344 60.4411 54.8868 59.6733 54.7159L59.1318 54.587C59.0201 54.587 58.9857 54.6816 58.9599 54.7675C58.9342 54.8535 58.9599 54.7675 58.9599 54.948C58.9599 55.1285 58.9599 55.223 58.9599 55.3691V56.2286C58.9222 58.4119 59.0083 60.5955 59.2178 62.7691C59.3123 63.7489 59.467 64.7114 59.6561 65.6654L60.0515 67.4875C60.1632 68.0977 60.2319 68.7079 60.3007 69.3182C60.3007 69.6963 60.0085 69.7565 59.5702 69.533C58.9967 69.2154 58.5595 68.6986 58.3411 68.0805C57.6993 65.5488 57.3305 62.9557 57.241 60.3454C57.241 58.7726 56.9746 57.1654 57.0262 55.498C57.0262 55.266 57.0262 55.0425 57.0777 54.8019C57.0868 54.6492 57.104 54.4972 57.1293 54.3464C57.1293 54.1745 57.1895 54.0026 57.2324 53.8307C57.3121 53.5149 57.4619 53.2211 57.6708 52.9712C57.7744 52.8482 57.9077 52.7536 58.0581 52.6964C58.2085 52.6393 58.371 52.6214 58.5302 52.6446H59.5272C59.8108 52.6446 59.9999 52.7392 60.2491 52.7822C60.7007 52.8837 61.1456 53.0129 61.5813 53.1689C62.6206 53.5462 63.6341 53.9912 64.6152 54.5011C66.0935 55.2574 67.4772 56.1426 68.9125 56.9677C69.9954 57.6123 71.1127 58.1538 72.2042 58.6866C72.4449 58.8156 72.6941 58.9101 72.9262 59.0476C73.2559 59.1858 73.5392 59.4154 73.7426 59.7094C73.8669 59.9409 73.9035 60.2094 73.8458 60.4657C73.8458 60.6118 73.8458 60.7579 73.7856 60.8869C73.6825 61.3166 73.0981 61.4713 72.3331 61.2392C70.2502 60.2808 68.252 59.148 66.3599 57.853C64.9321 56.9656 63.4379 56.1898 61.8907 55.5324L61.9079 55.4551Z" fill="#4E9459"/>
<path d="M69.8483 65.7076C70.8796 66.7132 71.9367 67.7016 73.0283 68.647C73.4236 68.9994 73.8877 69.283 74.2659 69.6268C75.684 70.8472 77.1279 72.0161 78.6319 73.1162C79.2963 73.5954 79.9943 74.0263 80.7204 74.4054C81.64 74.8609 82.594 75.3594 83.4019 75.686C83.6254 75.7719 83.6684 76.1329 83.316 76.4767C83.0797 76.6708 82.8 76.8049 82.5008 76.8678C82.2015 76.9306 81.8915 76.9203 81.5971 76.8376C80.4952 76.4996 79.4453 76.0108 78.4772 75.3851C77.514 74.8113 76.61 74.1434 75.7785 73.3912C74.773 72.5317 73.6041 71.7754 72.547 70.916C71.4898 70.0565 70.235 68.9994 69.1607 67.9938C68.4817 67.375 67.8199 66.739 67.1582 66.103C66.1612 65.1318 65.2072 64.109 64.2446 63.1121C63.4969 62.33 62.689 61.6166 61.967 60.7572C61.8123 60.5681 61.6404 60.379 61.5029 60.1727C61.3776 60.0082 61.2843 59.8216 61.2279 59.6227C61.1801 59.4817 61.1597 59.3329 61.1677 59.1843C61.2312 58.9364 61.3656 58.7124 61.5545 58.5397C61.63 58.4657 61.7104 58.3968 61.7951 58.3335C61.875 58.2927 61.9633 58.2715 62.053 58.2715C62.1426 58.2715 62.231 58.2927 62.3108 58.3335C62.5692 58.3941 62.8085 58.5182 63.007 58.6944C64.1758 59.9063 65.4478 61.2728 66.8058 62.648C67.8113 63.6621 68.8427 64.6763 69.9084 65.6647L69.8483 65.7076Z" fill="#4E9459"/>
<path d="M49.0232 56.1933C49.2381 56.1933 49.2896 56.5199 49.1006 56.9152C48.9951 57.0909 48.8547 57.243 48.688 57.3621L48.3442 57.4997C48.2927 57.4997 47.4848 57.3536 47.141 57.3536C46.8485 57.3319 46.5598 57.2742 46.2815 57.1817C45.7229 57.027 45.1642 56.8379 44.5626 56.6832C44.4367 56.6452 44.3177 56.5872 44.2102 56.5113C43.8295 56.2555 43.3936 56.0935 42.9382 56.0386C42.8609 56.0386 42.7921 56.0386 42.6976 56.0386C42.2008 56.0463 41.7065 55.9678 41.2365 55.8065C40.8841 55.6003 40.5317 55.4112 40.1708 55.2221C40.1106 55.2221 40.0505 55.2221 40.0161 55.119C39.9301 54.8869 39.8012 54.9127 39.6895 54.8783C39.5184 54.8292 39.3561 54.7538 39.2082 54.6549C39.1245 54.5687 39.047 54.4768 38.9761 54.3798C38.9507 54.3246 38.9375 54.2645 38.9375 54.2036C38.9375 54.1428 38.9507 54.0827 38.9761 54.0274C39.0535 53.9501 38.9761 53.8298 38.9761 53.7266C38.9719 53.6895 38.9719 53.652 38.9761 53.6149C39.1469 53.4547 39.3411 53.3214 39.552 53.2196C39.7624 53.0946 39.9917 53.0046 40.2309 52.9531H41.0904C41.5115 52.9531 41.9499 53.0047 42.0444 52.9531C42.1395 52.9695 42.2286 53.0111 42.3022 53.0734C42.3022 53.0734 43.5828 53.211 43.6344 53.2367C43.875 53.3313 44.1415 53.3227 44.3306 53.5719C44.3306 53.6235 44.4251 53.6235 44.4681 53.6407C44.8942 53.7556 45.3063 53.917 45.6971 54.122C45.8948 54.2165 46.1182 54.2681 46.3245 54.3455C46.3245 54.3455 46.3933 54.397 46.4276 54.4228C46.4649 54.4592 46.5086 54.4883 46.5566 54.5087C47.0636 54.672 47.502 54.9986 48.0176 55.1619C48.138 55.1619 48.5849 55.669 48.731 55.7206C48.8771 55.7722 48.9373 56.1933 49.0232 56.1933Z" fill="#4E9459"/>
<path d="M54.7238 48.7937C54.9215 48.7937 54.7754 48.9742 54.7238 49.4469C54.7238 49.593 54.5347 49.9883 54.4488 50.0141C54.2837 50.0593 54.1128 50.0796 53.9417 50.0743C53.492 49.8864 53.0555 49.6681 52.6353 49.4211C52.3598 49.2699 52.1102 49.0755 51.8962 48.8452C51.4493 48.3983 51.0368 47.9858 50.5898 47.5217C50.4986 47.4174 50.4259 47.2982 50.375 47.1693C50.1855 46.739 49.9206 46.3461 49.5929 46.009C49.5413 45.9575 49.5069 45.8801 49.3952 45.8715C48.9852 45.5359 48.6512 45.117 48.4154 44.6425C48.3638 44.419 48.3037 44.2214 48.2435 44.0065L48.0974 43.3447C48.0974 43.2845 48.0372 43.233 48.0974 43.1384C48.2349 42.9064 48.1404 42.8118 48.0974 42.6829C48.0359 42.4798 48.0183 42.2659 48.0458 42.0555C48.0864 41.9108 48.1567 41.7762 48.2521 41.6602C48.3209 41.557 48.5013 41.5828 48.5443 41.6C48.5873 41.6172 48.7248 41.6 48.8022 41.6H48.8967C49.0945 41.6499 49.2896 41.7101 49.4811 41.7805C49.6693 41.8502 49.8482 41.9425 50.014 42.0555C50.014 42.0555 50.246 42.3048 50.5039 42.554C50.7617 42.8032 51.0024 43.1041 51.0625 43.147C51.1227 43.19 51.1313 43.3017 51.1485 43.3877C51.1657 43.4736 51.9564 44.1956 52.0079 44.2471C52.1283 44.4448 52.3345 44.5737 52.3088 44.8745C52.3088 44.9347 52.3088 44.9605 52.3775 44.9949C52.6167 45.3117 52.824 45.6514 52.9963 46.009C53.107 46.1738 53.2275 46.3316 53.3573 46.4817C53.3608 46.5189 53.3608 46.5563 53.3573 46.5935C53.3597 46.6436 53.3778 46.6916 53.4089 46.731C53.6632 47.1137 53.9508 47.4732 54.2683 47.8053C54.3543 47.8827 54.5347 48.3897 54.6379 48.4499C54.741 48.5101 54.6465 48.7851 54.7238 48.7937Z" fill="#4E9459"/>
<path d="M63.5054 46.7737C63.6343 46.851 63.4194 46.9112 63.0413 47.169C62.8666 47.2789 62.6701 47.3493 62.4654 47.3753C62.3222 47.3231 62.1887 47.2476 62.0701 47.1518C61.9692 46.9672 61.8913 46.771 61.838 46.5674C61.7607 46.2924 61.6833 45.9744 61.6575 45.8283C61.6063 45.5441 61.6063 45.253 61.6575 44.9688C61.7382 44.4334 61.8472 43.9027 61.9841 43.3788C62.0174 43.2606 62.0728 43.1498 62.1474 43.0522C62.3867 42.7243 62.5537 42.3493 62.6373 41.9521C62.6528 41.9184 62.6608 41.8818 62.6608 41.8447C62.6608 41.8076 62.6528 41.771 62.6373 41.7372C62.6845 41.2868 62.8377 40.8538 63.0842 40.4738C63.3679 40.216 63.6085 39.941 63.8835 39.6831C63.8835 39.6831 63.8835 39.5886 64.0297 39.5886C64.2703 39.5886 64.2961 39.4941 64.3648 39.4081C64.4825 39.2953 64.6156 39.1998 64.7602 39.1245C64.8743 39.1095 64.9899 39.1095 65.104 39.1245C65.2071 39.1245 65.422 39.3222 65.4392 39.3565C65.4564 39.3909 65.6282 39.5027 65.7314 39.5714L65.8345 39.6488C65.8837 39.8232 65.9182 40.0014 65.9377 40.1816C65.9852 40.3579 66.0026 40.541 65.9892 40.7231C65.9892 40.7231 65.8775 40.9895 65.7829 41.2645C65.7079 41.4728 65.6448 41.6851 65.5939 41.9005C65.5939 41.9693 65.5079 42.0037 65.4564 42.0552C65.4048 42.1068 65.2329 42.9147 65.2157 42.9749C65.1298 43.1382 65.1298 43.3272 64.8891 43.439C64.8461 43.439 64.8375 43.4991 64.8289 43.5335C64.7286 43.832 64.599 44.1199 64.4422 44.393C64.3862 44.5408 64.3431 44.6932 64.3133 44.8485C64.3133 44.8485 64.3133 44.9001 64.2445 44.9258C64.2171 44.9486 64.1963 44.9782 64.1844 45.0118C64.0583 45.3556 63.9746 45.7135 63.9351 46.0775C63.9351 46.1635 63.6945 46.4986 63.7202 46.5846C63.746 46.6705 63.4538 46.7393 63.5054 46.7737Z" fill="#4E9459"/>
<path d="M15.5753 23.7315C15.8663 23.7955 16.1366 23.9313 16.3618 24.1264C16.5869 24.3216 16.7598 24.5699 16.8645 24.8488C17.8615 27.5217 13.3493 27.6764 13.3751 25.2957C13.388 25.0362 13.4596 24.783 13.5844 24.5551C13.7093 24.3272 13.8841 24.1306 14.0959 23.9801C14.3077 23.8295 14.5508 23.7289 14.8071 23.6859C15.0633 23.6428 15.326 23.6584 15.5753 23.7315Z" fill="#4E9459"/>
<path d="M22.4327 23.009C22.723 23.0715 22.9931 23.2057 23.2183 23.3993C23.4435 23.593 23.6166 23.8399 23.7219 24.1177C24.7189 26.7906 20.2067 26.9453 20.2325 24.5646C20.2466 24.3058 20.3191 24.0536 20.4445 23.8268C20.5698 23.6 20.7449 23.4044 20.9565 23.2548C21.1681 23.1052 21.4108 23.0054 21.6664 22.9628C21.9221 22.9202 22.184 22.936 22.4327 23.009Z" fill="#4E9459"/>
<path d="M29.2902 22.2705C29.5799 22.3374 29.8489 22.4742 30.0736 22.669C30.2983 22.8637 30.472 23.1105 30.5794 23.3878C31.5763 26.0608 27.0642 26.2155 27.09 23.8348C27.1029 23.5753 27.1744 23.322 27.2993 23.0942C27.4241 22.8663 27.599 22.6697 27.8108 22.5191C28.0225 22.3686 28.2657 22.268 28.5219 22.2249C28.7782 22.1819 29.0408 22.1975 29.2902 22.2705Z" fill="#4E9459"/>
<path d="M50.6061 82.5191C47.0566 82.6394 43.507 82.7168 39.9574 82.7769C38.6597 82.7769 37.3791 82.8629 36.0727 82.8715C31.5004 82.8715 26.9366 82.8199 22.3729 82.7254C20.3446 82.7254 18.3077 82.7254 16.3051 82.7254H12.4376C11.1656 82.7254 9.85917 82.7254 8.69031 82.7254C8.58988 82.7588 8.48133 82.7588 8.3809 82.7254C8.31112 82.6785 8.25244 82.6169 8.20901 82.5449C8.09728 82.3988 8.14885 82.0808 8.50123 81.78C9.49655 81.051 10.7058 80.6731 11.9391 80.7057C17.2419 80.7057 22.4588 80.8861 27.7617 81.0924C30.9331 81.2213 34.2334 81.0924 37.4736 81.0408C41.0375 80.9893 44.6043 80.9062 48.1739 80.7916C50.3655 80.7228 52.5657 80.6455 54.7573 80.5338C58.0748 80.3791 61.4095 80.1986 64.7013 79.9407C67.2797 79.7259 69.7549 79.4079 72.2817 79.0813L73.9319 78.8836C76.0118 78.6687 76.6821 78.7289 77.172 79.1758C77.2908 79.268 77.4002 79.3716 77.4986 79.4852C77.7393 79.8462 76.9142 80.2329 75.4016 80.4736C70.898 81.2041 66.128 81.6425 61.3236 81.9691C57.7568 82.2097 54.1643 82.3816 50.5804 82.5449L50.6061 82.5191Z" fill="#4E9459"/>
<path d="M49.195 83.645C46.1296 83.7481 43.0613 83.8312 39.9902 83.8942L36.6383 83.9802C32.6934 84.0231 28.7485 83.9802 24.8035 83.9802H19.5608C17.3348 83.9802 15.0917 83.9802 12.8828 83.92C11.4905 83.8684 13.2352 82.7511 15.8222 82.7683C20.3773 82.7683 24.9067 82.9058 29.4962 83.009C32.2379 83.0863 35.0913 83.009 37.8931 82.9316C40.97 82.8715 44.0554 82.8027 47.1409 82.691C49.0403 82.6308 50.9311 82.5363 52.8305 82.4503C55.7011 82.3128 58.5889 82.1667 61.4251 81.9518C63.6339 81.7714 65.7998 81.5565 67.9828 81.3158L69.4095 81.1611C71.2144 80.9978 71.7902 81.0236 72.2027 81.2815C72.2994 81.3336 72.3915 81.394 72.4778 81.4619C72.6668 81.6768 71.9449 81.9175 70.6385 82.098C66.7366 82.6222 62.6112 82.9574 58.46 83.2324C55.3831 83.4387 52.2805 83.5848 49.1864 83.7309L49.195 83.645Z" fill="#4E9459"/>
<path d="M80.5065 1.91952C80.5065 2.18595 80.3775 2.46098 80.326 2.71881C80.326 2.82195 80.326 2.91649 80.326 3.01103C80.24 3.35481 80.1197 3.69 80.0424 4.02519C80.0123 4.17264 80.0123 4.32466 80.0424 4.47211C80.0424 4.66119 80.1885 4.85027 80.0424 5.03935C79.8962 5.22844 78.3234 5.03935 78.3234 4.79011C78.2621 4.39849 78.338 3.9977 78.5383 3.65562C78.6672 3.42357 78.5383 3.19152 78.5985 2.95946L78.693 2.18595C78.7215 2.02669 78.7416 1.86603 78.7532 1.70465C78.7832 1.46782 78.7832 1.22814 78.7532 0.991301C78.6955 0.808461 78.6177 0.632617 78.5211 0.46703C78.5211 0.46703 78.4695 0.389679 78.5211 0.346706C78.5727 0.303733 78.5211 0.217787 78.6844 0.174814C78.8151 0.124651 78.9504 0.0872339 79.0884 0.0630843L79.3204 0.0115163C79.5701 -0.018702 79.8234 0.0107535 80.0595 0.0974626C80.2363 0.202352 80.3834 0.350464 80.4872 0.527874C80.5909 0.705285 80.6478 0.906165 80.6526 1.11162C80.6526 1.37806 80.6526 1.65308 80.6526 1.91952H80.5065Z" fill="#4E9459"/>
<path d="M92.8202 8.46749L91.3849 8.99176C91.213 9.06051 91.0583 9.16365 90.8778 9.22381L88.9784 9.81684C88.6998 9.90826 88.4296 10.0233 88.1705 10.1606C87.8534 10.3665 87.4902 10.4905 87.1134 10.5216C86.8727 10.5216 86.7266 9.31835 87.1134 9.11208C87.7401 8.73858 88.4135 8.44959 89.1159 8.25262C89.5402 8.09487 89.9441 7.88714 90.3192 7.63381C90.7661 7.40176 91.2302 7.21268 91.6943 6.99781L92.5538 6.61105C92.9835 6.40478 93.4132 6.2243 93.843 5.98365C94.2727 5.743 94.4188 5.51095 94.7024 5.33046C94.7694 5.28484 94.8415 5.24733 94.9173 5.21873C95.2095 5.13278 95.3556 5.21873 95.5705 5.54532C95.5705 5.62268 95.6736 5.69143 95.7166 5.76878C95.7821 5.88561 95.8165 6.01731 95.8165 6.15124C95.8165 6.28518 95.7821 6.41687 95.7166 6.5337C95.3848 7.13745 94.8574 7.61029 94.2211 7.87446C93.7742 8.08932 93.3101 8.2784 92.846 8.48468L92.8202 8.46749Z" fill="#4E9459"/>
<path d="M60.6961 15.6119C56.184 15.4658 51.6288 15.5174 47.0909 15.5603C42.553 15.6033 38.015 15.7494 33.4943 16.0073C30.1939 16.2049 26.9022 16.5143 23.6363 16.8667C20.7631 17.1665 17.9124 17.6517 15.1018 18.3192C13.7368 18.6303 12.4086 19.0855 11.1397 19.6771C10.5699 19.9511 10.0453 20.3105 9.5841 20.7429L9.34345 21.0609C9.28457 21.1589 9.23563 21.2625 9.19734 21.3703C9.11275 21.6986 9.04675 22.0315 8.99966 22.3673C8.58592 25.2151 8.34198 28.085 8.26912 30.9619C8.15739 33.8754 8.11442 36.789 8.12301 39.7026C8.12301 44.8593 8.38085 50.0934 8.81918 55.1728C9.1028 58.456 9.48955 61.7391 9.99664 64.9879C10.4606 68.2262 11.1382 71.4304 12.025 74.5794C12.661 76.4702 12.1453 76.4445 11.0967 74.9404C9.58136 72.3602 8.57754 69.5122 8.1402 66.5521C7.13112 59.8149 6.55696 53.0197 6.42128 46.2087C6.17562 39.3788 6.32485 32.5404 6.8682 25.7277C6.97134 24.705 7.06588 23.6736 7.23777 22.6165C7.32258 22.0656 7.44025 21.5203 7.59015 20.9835C7.68012 20.6448 7.8348 20.3267 8.04566 20.0467L8.34647 19.6428L8.69026 19.3248C9.5721 18.5851 10.5753 18.0035 11.6554 17.6059C12.6642 17.2225 13.6944 16.8982 14.7409 16.6347C18.8614 15.6609 23.0507 15.0058 27.2718 14.6751C36.4422 13.8586 45.6384 13.7039 54.8174 13.6953C57.6451 13.6953 60.4813 13.7469 63.3175 13.893C66.1439 14.0137 68.9584 14.3325 71.7402 14.847C72.8271 15.0593 73.8938 15.3641 74.9288 15.758C75.4712 15.9824 75.9848 16.271 76.4586 16.6175C76.9632 16.9507 77.403 17.373 77.7564 17.8637C78.4 18.7782 78.9229 19.7719 79.312 20.8202C79.7202 21.8299 80.0675 22.8631 80.352 23.9143C81.4021 28.0882 82.1206 32.3385 82.5006 36.6257C83.2054 43.2092 83.5921 49.6809 83.7468 56.2128C83.7468 57.6567 83.8242 59.0576 83.8242 60.5101C83.8242 65.8903 83.6007 67.6006 83.0851 68.7437C82.9817 69.0008 82.8611 69.2506 82.7241 69.4914C82.3201 69.9813 82.1139 67.7725 82.0709 63.8792C81.9935 58.0692 81.8303 52.1046 81.4779 46.0797C81.1845 40.025 80.4955 33.9959 79.4152 28.0311C79.0055 25.851 78.4044 23.7112 77.6189 21.6367C77.2588 20.6623 76.7703 19.7403 76.1664 18.895C76.0352 18.7085 75.8855 18.5358 75.7195 18.3794L75.5132 18.1989L75.2554 18.0184C74.8392 17.7681 74.3986 17.5608 73.9404 17.3996C71.8465 16.736 69.684 16.3122 67.4945 16.1362C65.2513 15.9041 62.9823 15.7838 60.7047 15.7236L60.6961 15.6119Z" fill="#4E9459"/>
<path d="M49.5733 77.7666H40.549L37.2486 77.8182C33.3811 77.8182 29.5135 77.7237 25.6374 77.6721C23.9184 77.6721 22.1995 77.6721 20.4806 77.6721C18.2811 77.7263 16.0805 77.6171 13.8971 77.3455C12.5392 77.1736 14.3441 76.4087 16.8365 76.3313C21.2713 76.3313 25.7319 76.3313 30.2269 76.4345C32.917 76.486 35.7188 76.3657 38.4691 76.3313L47.5536 76.211L53.1486 76.1165C55.9677 76.0477 58.8039 76.0047 61.6057 75.8844C63.7802 75.7985 65.903 75.618 68.0689 75.4805C68.5416 75.4805 69.0057 75.3945 69.4784 75.3945C71.2575 75.3945 71.8247 75.5406 72.2115 75.8758C72.3051 75.9474 72.3914 76.028 72.4693 76.1165C72.6498 76.3657 71.9278 76.6322 70.6386 76.847C66.6672 77.3168 62.6738 77.5779 58.675 77.6291L49.5733 77.801V77.7666Z" fill="#4E9459"/>
<path d="M6.03488 53.8134C5.85439 51.1147 5.73406 48.416 5.62234 45.7173C5.57936 44.7375 5.47623 43.7492 5.45904 42.7694C5.38169 39.3315 5.40747 35.8164 5.51061 32.3441C5.57077 30.7971 5.56217 29.2415 5.60515 27.7031C5.6825 25.7263 5.60515 23.7152 6.38725 21.6868C6.65369 21.0508 7.16077 21.386 7.5905 22.022C8.11537 22.7757 8.37257 23.6834 8.32104 24.6004C8.00304 28.4164 8.02023 32.3957 7.7452 36.3922C7.59909 38.7901 7.80536 41.2739 7.89131 43.732C7.98585 46.4221 8.09758 49.1208 8.26088 51.8195C8.35542 53.4782 8.46715 55.137 8.61325 56.7872C8.83671 59.2968 9.02579 61.815 9.39536 64.2816C9.69823 66.1686 10.097 68.0389 10.59 69.8853C10.6931 70.2893 10.8221 70.676 10.9338 71.0714C11.0921 71.5745 11.2128 72.0888 11.2948 72.6098C11.3139 72.9084 11.2483 73.2063 11.1057 73.4693C11.0541 73.5896 11.0283 73.7271 10.994 73.813C10.9596 73.899 10.7619 73.9334 10.4267 73.7443C10.2282 73.6354 10.0599 73.4789 9.93682 73.2888C9.76104 73.0675 9.61911 72.8213 9.51569 72.5582C8.8245 70.8901 8.28096 69.1646 7.89131 67.4015C7.48736 65.6224 7.15217 63.8089 6.87715 61.9955C6.43882 59.2968 6.19817 56.5723 6.01769 53.8478L6.03488 53.8134Z" fill="#4E9459"/>
</svg>
