<svg width="169" height="67" viewBox="0 0 169 67" fill="none" xmlns="http://www.w3.org/2000/svg">
<path d="M1.99993 65.6347C30.4335 17.7624 63.6668 25.9286 86.125 27.3684C108.256 29.677 105.517 43.675 102.187 49.0827C93.384 63.3745 73.1071 62.8555 71.172 46.8174C69.0028 28.8387 82.8202 10.2422 110.094 2.66C123.488 0.243153 137.474 4.65561 149.369 10.4202C154.949 13.1243 158.48 17.7864 163.704 20.6855C171.786 25.1705 163.431 15.3167 161.857 10.6305C158.64 1.05524 163.369 16.7582 164.497 20.0533C166.36 25.4902 151.673 26.2931 146.217 27.4828" stroke="url(#paint0_linear_258_493)" stroke-width="2.5" stroke-linecap="round"/>
<defs>
<linearGradient id="paint0_linear_258_493" x1="120.137" y1="-14.1485" x2="9.77711" y2="27.5506" gradientUnits="userSpaceOnUse">
<stop stop-color="#4E9459"/>
<stop offset="1" stop-color="#F7F7F7"/>
</linearGradient>
</defs>
</svg>
