<svg width="22" height="16" viewBox="0 0 22 16" fill="none" xmlns="http://www.w3.org/2000/svg">
<path d="M4.60674 3.36473C4.56206 3.64844 4.37866 3.91968 4.28051 4.18559C4.26321 4.29541 4.24736 4.39608 4.23151 4.49675C4.08233 4.84842 3.898 5.18516 3.75942 5.52911C3.70264 5.68108 3.67715 5.84295 3.68447 6.00501C3.65276 6.20636 3.77663 6.4322 3.58934 6.60904C3.40205 6.78588 1.75896 6.32077 1.80076 6.05536C1.80113 5.62806 1.94917 5.21401 2.21981 4.88335C2.39601 4.65787 2.29765 4.38914 2.40063 4.15213L2.63101 3.34432C2.68808 3.17951 2.73641 3.0118 2.7758 2.8419C2.84748 2.59474 2.88768 2.33952 2.89543 2.08229C2.86473 1.87793 2.81134 1.67763 2.73624 1.48511C2.73624 1.48511 2.6943 1.39409 2.75642 1.35698C2.81854 1.31987 2.77805 1.2197 2.95914 1.20133C3.10676 1.16984 3.25709 1.15268 3.40802 1.1501L3.66376 1.1341C3.93473 1.1438 4.19953 1.21765 4.43641 1.34958C4.60702 1.49091 4.73887 1.6733 4.81959 1.87961C4.9003 2.08592 4.92723 2.30938 4.89782 2.52895C4.85314 2.81266 4.80701 3.10552 4.76233 3.38923L4.60674 3.36473Z" fill="#4E9459"/>
<path d="M16.6224 12.4038L15.0062 12.7213C14.8116 12.7657 14.6295 12.8496 14.4273 12.8834L12.3052 13.1963C11.9933 13.247 11.6862 13.3241 11.3873 13.4269C11.0151 13.593 10.6075 13.6641 10.2011 13.634C9.94484 13.5937 9.99105 12.2879 10.4375 12.1331C11.1675 11.8405 11.9329 11.6457 12.714 11.5537C13.1922 11.4569 13.6572 11.3035 14.099 11.0966C14.6139 10.9244 15.1398 10.8009 15.67 10.65L16.6501 10.3823C17.1422 10.2347 17.6301 10.1146 18.1281 9.93038C18.626 9.7462 18.8205 9.5236 19.1528 9.37897C19.2317 9.34162 19.3148 9.31378 19.4003 9.29603C19.7259 9.25352 19.8671 9.36954 20.0411 9.75335C20.0281 9.83571 20.1264 9.92623 20.1592 10.0158C20.2094 10.1512 20.2239 10.2972 20.2014 10.4398C20.179 10.5824 20.1203 10.7169 20.0309 10.8303C19.5764 11.4176 18.9355 11.8326 18.2137 12.0072C17.7017 12.1611 17.1758 12.2846 16.647 12.4264L16.6224 12.4038Z" fill="#4E9459"/>
</svg>
