<svg width="44" height="44" viewBox="0 0 44 44" fill="none" xmlns="http://www.w3.org/2000/svg">
<g clip-path="url(#clip0_258_184)">
<path d="M37.0923 6.88948C33.455 3.26697 28.6191 1.08396 23.4853 0.746957C18.3514 0.409958 13.2695 1.94194 9.18588 5.05763C5.10223 8.17332 2.29521 12.6603 1.28752 17.6831C0.279834 22.7059 1.14016 27.9222 3.7083 32.3604L0.699219 43.2988L11.9435 40.3637C15.0535 42.0497 18.5382 42.9331 22.0795 42.9333H22.0884C26.283 42.933 30.3832 41.6946 33.8709 39.3748C37.3586 37.055 40.0772 33.7579 41.683 29.9003C43.2888 26.0426 43.7098 21.7976 42.8927 17.7019C42.0756 13.6061 40.0571 9.84343 37.0923 6.88948ZM22.0884 39.3681H22.0816C18.9244 39.3684 15.8253 38.5235 13.1087 36.9221L12.4647 36.5421L5.79138 38.2836L7.57278 31.8083L7.153 31.1446C5.0753 27.8487 4.15677 23.9587 4.54178 20.0864C4.9268 16.2141 6.59353 12.5789 9.27997 9.75242C11.9664 6.92589 15.5202 5.06828 19.3827 4.47161C23.2452 3.87493 27.1974 4.57303 30.6179 6.45616C34.0384 8.33928 36.7334 11.3007 38.279 14.8747C39.8247 18.4488 40.1335 22.4329 39.1568 26.2007C38.1802 29.9685 35.9734 33.3064 32.8836 35.6896C29.7937 38.0728 25.9959 39.3662 22.0872 39.3664L22.0884 39.3681Z" fill="#E0E0E0"/>
<path d="M1.67188 42.0866L4.5436 31.6461C2.31891 27.8033 1.42988 23.3371 2.01433 18.94C2.59878 14.543 4.62407 10.4607 7.77618 7.32616C10.9283 4.1916 15.0311 2.17988 19.4486 1.6029C23.866 1.02593 28.3513 1.91592 32.2089 4.13491C36.0666 6.3539 39.0811 9.7779 40.7851 13.876C42.4892 17.9742 42.7875 22.5175 41.6339 26.8017C40.4802 31.0858 37.9391 34.8713 34.4044 37.5714C30.8697 40.2714 26.539 41.7351 22.0837 41.7355H22.0748C18.6961 41.7349 15.3714 40.892 12.4039 39.2839L1.67359 42.0848L1.67188 42.0866Z" fill="url(#paint0_linear_258_184)"/>
<path fill-rule="evenodd" clip-rule="evenodd" d="M16.8485 12.845C16.4561 11.9764 16.0427 11.9589 15.6696 11.944C15.364 11.9308 15.0144 11.9317 14.6657 11.9317C14.4002 11.9386 14.139 12.0002 13.8986 12.1125C13.6581 12.2248 13.4436 12.3855 13.2686 12.5843C12.6762 13.1427 12.2071 13.8178 11.8914 14.5667C11.5756 15.3156 11.42 16.1217 11.4345 16.9337C11.4345 19.5 13.3122 21.9797 13.5741 22.3278C13.836 22.6758 17.1985 28.1099 22.5235 30.2002C26.9489 31.9375 27.8497 31.592 28.8104 31.5051C29.771 31.4182 31.9097 30.2437 32.3466 29.0258C32.7835 27.8078 32.7831 26.7641 32.6521 26.546C32.5212 26.3279 32.172 26.1984 31.6478 25.9373C31.1236 25.6761 28.5485 24.4143 28.0679 24.2405C27.5874 24.0667 27.2382 23.9798 26.889 24.5021C26.5398 25.0243 25.5364 26.198 25.2304 26.5469C24.9245 26.8958 24.6189 26.9388 24.0952 26.6781C22.5507 26.0651 21.1252 25.1892 19.8824 24.0897C18.7369 23.0358 17.7547 21.8187 16.9679 20.4781C16.6623 19.9566 16.9349 19.6738 17.1981 19.4131C17.4334 19.1796 17.7218 18.8043 17.9842 18.4997C18.1992 18.2361 18.3754 17.9433 18.5075 17.6303C18.5773 17.4864 18.6099 17.3275 18.6024 17.168C18.595 17.0084 18.5476 16.8532 18.4647 16.7165C18.3325 16.4553 17.314 13.8763 16.8485 12.845Z" fill="white"/>
<path d="M36.9191 6.82288C33.3243 3.23949 28.5436 1.07931 23.4677 0.744823C18.3917 0.410338 13.3667 1.92436 9.32894 5.0048C5.29116 8.08524 2.51598 12.522 1.52049 17.4884C0.524999 22.4548 1.37709 27.6121 3.91799 31.9995L0.943573 42.8143L12.0586 39.9128C15.1329 41.5795 18.5776 42.4529 22.0782 42.4531H22.0872C26.2338 42.4534 30.2875 41.2296 33.7356 38.9366C37.1837 36.6435 39.8715 33.3841 41.459 29.5705C43.0465 25.7568 43.4625 21.5602 42.6544 17.5112C41.8463 13.4622 39.8504 9.74269 36.9191 6.82288ZM22.0872 38.9288H22.0825C18.9614 38.9291 15.8978 38.0939 13.2123 36.5108L12.5755 36.1351L5.97797 37.8565L7.73883 31.4546L7.32418 30.7986C5.2704 27.5403 4.36251 23.6949 4.74323 19.867C5.12395 16.039 6.7717 12.4456 9.42743 9.65153C12.0832 6.85747 15.5963 5.02125 19.4146 4.43152C23.2328 3.84178 27.1397 4.53199 30.521 6.39363C33.9022 8.25527 36.5662 11.1828 38.0941 14.7159C39.622 18.2491 39.9271 22.1876 38.9616 25.9122C37.996 29.6368 35.8145 32.9364 32.76 35.2922C29.7054 37.648 25.9511 38.9265 22.0872 38.9267V38.9288Z" fill="white"/>
</g>
<defs>
<linearGradient id="paint0_linear_258_184" x1="21.9981" y1="42.0866" x2="21.9981" y2="1.43164" gradientUnits="userSpaceOnUse">
<stop stop-color="#20B038"/>
<stop offset="1" stop-color="#60D66A"/>
</linearGradient>
<clipPath id="clip0_258_184">
<rect width="42.6" height="42.6" fill="white" transform="translate(0.699219 0.699219)"/>
</clipPath>
</defs>
</svg>
