<svg width="24" height="24" viewBox="0 0 24 24" fill="none" xmlns="http://www.w3.org/2000/svg">
<path d="M10.5 13.4999V18.3412C10.5 18.5401 10.421 18.7309 10.2803 18.8715C10.1397 19.0122 9.94891 19.0912 9.75 19.0912C9.70505 19.0909 9.6602 19.0868 9.61594 19.079L3.61594 17.9877C3.44313 17.9564 3.28681 17.8653 3.17425 17.7305C3.06169 17.5956 3.00003 17.4256 3 17.2499V13.4999C3 13.301 3.07902 13.1103 3.21967 12.9696C3.36032 12.829 3.55109 12.7499 3.75 12.7499H9.75C9.94891 12.7499 10.1397 12.829 10.2803 12.9696C10.421 13.1103 10.5 13.301 10.5 13.4999ZM10.2309 5.08306C10.1466 5.01261 10.0478 4.96157 9.94148 4.93354C9.83521 4.90552 9.72407 4.90119 9.61594 4.92087L3.61594 6.01212C3.44313 6.04352 3.28681 6.13457 3.17425 6.2694C3.06169 6.40423 3.00003 6.57429 3 6.74993V10.4999C3 10.6988 3.07902 10.8896 3.21967 11.0303C3.36032 11.1709 3.55109 11.2499 3.75 11.2499H9.75C9.94891 11.2499 10.1397 11.1709 10.2803 11.0303C10.421 10.8896 10.5 10.6988 10.5 10.4999V5.65868C10.5 5.54889 10.4759 5.44043 10.4294 5.34097C10.3829 5.24151 10.3152 5.15346 10.2309 5.08306ZM20.25 12.7499H12.75C12.5511 12.7499 12.3603 12.829 12.2197 12.9696C12.079 13.1103 12 13.301 12 13.4999V18.8859C11.9998 19.0617 12.0614 19.232 12.174 19.367C12.2865 19.502 12.443 19.5932 12.6159 19.6246L20.1159 20.9877C20.1601 20.996 20.205 21.0001 20.25 20.9999C20.4489 20.9999 20.6397 20.9209 20.7803 20.7803C20.921 20.6396 21 20.4488 21 20.2499V13.4999C21 13.301 20.921 13.1103 20.7803 12.9696C20.6397 12.829 20.4489 12.7499 20.25 12.7499ZM20.7309 3.17431C20.6466 3.10386 20.5478 3.05282 20.4415 3.02479C20.3352 2.99677 20.2241 2.99244 20.1159 3.01212L12.6159 4.37618C12.4431 4.40758 12.2868 4.49863 12.1743 4.63346C12.0617 4.76829 12 4.93836 12 5.114V10.4999C12 10.6988 12.079 10.8896 12.2197 11.0303C12.3603 11.1709 12.5511 11.2499 12.75 11.2499H20.25C20.4489 11.2499 20.6397 11.1709 20.7803 11.0303C20.921 10.8896 21 10.6988 21 10.4999V3.74993C21 3.64014 20.9759 3.53168 20.9294 3.43222C20.8829 3.33276 20.8152 3.24471 20.7309 3.17431Z" fill="#4E9459"/>
</svg>
